<!-- Generated by IcoMoon.io -->
<svg version="1.1" xmlns="http://www.w3.org/2000/svg" width="36" height="32" viewBox="0 0 36 32">
<title>payroll-icon</title>
<path fill="#335262" d="M18.545 8.455c-0.209 0-0.419-0.080-0.578-0.24-0.32-0.319-0.32-0.838 0-1.157l2.182-2.182c0.32-0.32 0.837-0.32 1.157 0s0.32 0.838 0 1.157l-2.182 2.182c-0.16 0.16-0.369 0.24-0.578 0.24z"></path>
<path fill="#fff" d="M21.818 15.273c0 5.422-4.396 9.818-9.818 9.818s-9.818-4.396-9.818-9.818c0-5.422 4.396-9.818 9.818-9.818s9.818 4.396 9.818 9.818z"></path>
<path fill="#335262" d="M12 26.182c-6.015 0-10.909-4.894-10.909-10.909s4.894-10.909 10.909-10.909c6.015 0 10.909 4.894 10.909 10.909s-4.894 10.909-10.909 10.909zM12 6.545c-4.812 0-8.727 3.915-8.727 8.727s3.915 8.727 8.727 8.727c4.812 0 8.727-3.915 8.727-8.727s-3.915-8.727-8.727-8.727z"></path>
<path fill="#335262" d="M12 5.455c-1.504 0-2.727-1.224-2.727-2.727s1.224-2.727 2.727-2.727c1.504 0 2.727 1.224 2.727 2.727s-1.224 2.727-2.727 2.727zM12 1.091c-0.902 0-1.636 0.734-1.636 1.636s0.734 1.636 1.636 1.636c0.902 0 1.636-0.734 1.636-1.636s-0.734-1.636-1.636-1.636z"></path>
<path fill="#e86c60" d="M11.229 14.501c0.426-0.426 5.4-3.857 5.4-3.857s-3.431 4.974-3.857 5.4c-0.426 0.426-1.117 0.426-1.543 0s-0.426-1.117 0-1.543z"></path>
<path fill="#b3b3b3" d="M12 9.818c-0.302 0-0.545-0.244-0.545-0.545v-1.091c0-0.301 0.244-0.545 0.545-0.545s0.545 0.244 0.545 0.545v1.091c0 0.301-0.244 0.545-0.545 0.545z"></path>
<path fill="#b3b3b3" d="M17.455 15.273c0-0.302 0.244-0.545 0.545-0.545h1.091c0.301 0 0.545 0.244 0.545 0.545s-0.244 0.545-0.545 0.545h-1.091c-0.301 0-0.545-0.244-0.545-0.545z"></path>
<path fill="#b3b3b3" d="M12 20.727c0.302 0 0.545 0.244 0.545 0.545v1.091c0 0.301-0.244 0.545-0.545 0.545s-0.545-0.244-0.545-0.545v-1.091c0-0.301 0.244-0.545 0.545-0.545z"></path>
<path fill="#b3b3b3" d="M6.545 15.273c0 0.302-0.244 0.545-0.545 0.545h-1.091c-0.301 0-0.545-0.244-0.545-0.545s0.244-0.545 0.545-0.545h1.091c0.301 0 0.545 0.244 0.545 0.545z"></path>
<path fill="#b3b3b3" d="M21.912 8.127l-3.857-3.857c-0.213-0.213-0.213-0.558 0-0.771l1.157-1.157c0.213-0.213 0.558-0.213 0.771 0l3.857 3.857c0.213 0.213 0.213 0.558 0 0.771l-1.157 1.157c-0.213 0.213-0.558 0.213-0.771 0z"></path>
<path fill="#335262" d="M5.455 8.455c-0.209 0-0.419-0.080-0.578-0.24l-2.182-2.182c-0.32-0.319-0.32-0.838 0-1.157s0.837-0.32 1.157 0l2.182 2.182c0.32 0.319 0.32 0.838 0 1.157-0.16 0.16-0.369 0.24-0.578 0.24z"></path>
<path fill="#b3b3b3" d="M2.088 8.127l3.857-3.857c0.213-0.213 0.213-0.558 0-0.771l-1.157-1.157c-0.213-0.213-0.558-0.213-0.771 0l-3.857 3.857c-0.213 0.213-0.213 0.558 0 0.771l1.157 1.157c0.213 0.213 0.558 0.213 0.771 0z"></path>
<path fill="#bfdee0" stroke="#fff" stroke-width="1.3333" stroke-miterlimit="4" stroke-linecap="butt" stroke-linejoin="miter" d="M34.251 31.333h-18.28c-0.598 0-1.082-0.484-1.082-1.082v-7.894c0-0.598 0.484-1.082 1.082-1.082h18.28c0.598 0 1.082 0.484 1.082 1.082v7.894c0 0.598-0.484 1.082-1.082 1.082z"></path>
<path fill="#444" d="M31.343 25.266h-6.647c-0.229 0-0.415-0.186-0.415-0.415s0.186-0.415 0.415-0.415h6.647c0.229 0 0.415 0.186 0.415 0.415s-0.186 0.415-0.415 0.415z"></path>
<path fill="#444" d="M31.343 28.174h-12.464c-0.229 0-0.415-0.186-0.415-0.415s0.186-0.415 0.415-0.415h12.464c0.229 0 0.415 0.186 0.415 0.415s-0.186 0.415-0.415 0.415z"></path>
<path fill="#444" d="M26.651 19.843l-1.662-1.662c-0.162-0.162-0.425-0.162-0.587 0l-4.986 4.986c-0.518 0.518-0.597 1.304-0.25 1.912l-0.581 0.581c-0.162 0.162-0.162 0.425 0 0.587 0.081 0.081 0.187 0.122 0.294 0.122s0.213-0.041 0.294-0.122l0.581-0.581c0.244 0.139 0.514 0.215 0.787 0.215 0.407 0 0.815-0.155 1.125-0.465l4.986-4.986c0.162-0.162 0.162-0.425 0-0.587z"></path>
<path fill="#efd358" d="M30.097 20.967c-0.106 0-0.213-0.041-0.294-0.122-0.162-0.162-0.162-0.425 0-0.587l3.030-3.030-0.953-0.953c-0.162-0.162-0.162-0.425 0-0.587s0.425-0.162 0.587 0l1.246 1.246c0.162 0.162 0.162 0.425 0 0.587l-3.324 3.324c-0.081 0.081-0.187 0.122-0.294 0.122z"></path>
<path fill="#636363" d="M32.468 12.364c-1.078-1.078-2.833-1.078-3.911 0l-4.985 4.986c-0.162 0.162-0.162 0.425 0 0.587l3.324 3.324c0.081 0.081 0.187 0.122 0.294 0.122s0.213-0.041 0.294-0.122l4.986-4.985c1.078-1.078 1.078-2.833 0-3.911z"></path>
</svg>
