<?xml version="1.0" encoding="UTF-8"?>
<svg width="78px" height="67px" viewBox="0 0 78 67" version="1.1" xmlns="http://www.w3.org/2000/svg" xmlns:xlink="http://www.w3.org/1999/xlink">
    <!-- Generator: Sketch 50.2 (55047) - http://www.bohemiancoding.com/sketch -->
    <title>sun-fog-29</title>
    <desc>Created with Sketch.</desc>
    <defs></defs>
    <g id="Page-1" stroke="none" stroke-width="1" fill="none" fill-rule="evenodd">
        <g id="Alerts-Dropdown" transform="translate(-643.000000, -1020.000000)" fill-rule="nonzero">
            <g id="Group-6" transform="translate(432.000000, 110.000000)">
                <g id="Panel-4" transform="translate(0.000000, 812.000000)">
                    <g id="Group-8">
                        <g id="Message" transform="translate(133.000000, 98.000000)">
                            <g id="sun-fog-29" transform="translate(78.000000, 0.000000)">
                                <path d="M5.08695652,40.6956522 L1.69565217,40.6956522 C0.758406887,40.6956522 0,39.9364173 0,39 C0,38.0635827 0.758406887,37.3043478 1.69565217,37.3043478 L5.08695652,37.3043478 C6.02420181,37.3043478 6.7826087,38.0635827 6.7826087,39 C6.7826087,39.9364173 6.02420181,40.6956522 5.08695652,40.6956522 Z" id="Shape" fill="#E4C13A"></path>
                                <path d="M14.921408,16.6170601 C14.4875594,16.6170601 14.0537109,16.4514692 13.722529,16.120287 L11.3496094,13.7465396 C10.6872453,13.0841755 10.6872453,12.0103176 11.3496094,11.3487814 C12.0119735,10.6864173 13.0850034,10.6864173 13.7473676,11.3487814 L16.1202871,13.7225288 C16.7826513,14.3848929 16.7826513,15.4587508 16.1202871,16.120287 C15.7891049,16.451469 15.3552565,16.6170601 14.921408,16.6170601 Z" id="Shape" fill="#E4C13A"></path>
                                <path d="M39,6.7826087 C38.0627547,6.7826087 37.3043478,6.02337382 37.3043478,5.08695652 L37.3043478,1.69565217 C37.3043478,0.759234874 38.0627547,0 39,0 C39.9372453,0 40.6956522,0.759234874 40.6956522,1.69565217 L40.6956522,5.08695652 C40.6956522,6.02337382 39.9372453,6.7826087 39,6.7826087 Z" id="Shape" fill="#E4C13A"></path>
                                <path d="M63.078592,16.6170601 C62.6447435,16.6170601 62.2108949,16.4514692 61.879713,16.120287 C61.2173489,15.4587508 61.2173489,14.3848929 61.879713,13.7225288 L64.2526326,11.3487814 C64.9149967,10.6864173 65.9880266,10.6864173 66.6503908,11.3487814 C67.3127549,12.0103176 67.3127549,13.0841755 66.6503908,13.7465396 L64.2774712,16.120287 C63.9462891,16.451469 63.5124406,16.6170601 63.078592,16.6170601 Z" id="Shape" fill="#E4C13A"></path>
                                <path d="M76.3043478,40.6956522 L72.9130435,40.6956522 C71.9757982,40.6956522 71.2173913,39.9364173 71.2173913,39 C71.2173913,38.0635827 71.9757982,37.3043478 72.9130435,37.3043478 L76.3043478,37.3043478 C77.2415931,37.3043478 78,38.0635827 78,39 C78,39.9364173 77.2415931,40.6956522 76.3043478,40.6956522 Z" id="Shape" fill="#E4C13A"></path>
                                <path d="M76.3043478,54.2608696 L1.69565217,54.2608696 C0.758406887,54.2608696 0,53.5016347 0,52.5652174 C0,51.6288001 0.758406887,50.8695652 1.69565217,50.8695652 L76.3043478,50.8695652 C77.2415931,50.8695652 78,51.6288001 78,52.5652174 C78,53.5016347 77.2415931,54.2608696 76.3043478,54.2608696 Z" id="Shape" fill="#00B2D5"></path>
                                <path d="M66.1304348,66.1304348 L11.8695652,66.1304348 C10.9323199,66.1304348 10.173913,65.3711999 10.173913,64.4347826 C10.173913,63.4983653 10.9323199,62.7391304 11.8695652,62.7391304 L66.1304348,62.7391304 C67.0676801,62.7391304 67.826087,63.4983653 67.826087,64.4347826 C67.826087,65.3711999 67.0676801,66.1304348 66.1304348,66.1304348 Z" id="Shape" fill="#00B2D5"></path>
                                <path d="M57.5553032,50.8695652 C59.7531102,47.4411064 61.0434783,43.3748116 61.0434783,39 C61.0434783,26.8257473 51.1742527,16.9565217 39,16.9565217 C26.8257473,16.9565217 16.9565217,26.8257473 16.9565217,39 C16.9565217,43.3748116 18.2468898,47.4411064 20.4446968,50.8695652 L57.5553032,50.8695652 Z" id="Shape" fill="#E4C13A"></path>
                            </g>
                        </g>
                    </g>
                </g>
            </g>
        </g>
    </g>
</svg>