<!-- Generated by IcoMoon.io -->
<svg version="1.1" xmlns="http://www.w3.org/2000/svg" width="939" height="1024" viewBox="0 0 939 1024">
<title></title>
<g id="icomoon-ignore">
</g>
<path fill="#335262" d="M725.333 330.667c-8.188 0-16.375-3.125-22.625-9.375-12.5-12.49-12.5-32.76 0-45.25l85.333-85.333c12.5-12.5 32.75-12.5 45.25 0 12.5 12.49 12.5 32.76 0 45.25l-85.333 85.333c-6.25 6.25-14.437 9.375-22.625 9.375z"></path>
<path fill="#fff" d="M853.333 597.333c0 212.077-171.923 384-384 384s-384-171.923-384-384c0-212.077 171.923-384 384-384s384 171.923 384 384z"></path>
<path fill="#335262" d="M469.333 1024c-235.26 0-426.667-191.406-426.667-426.667s191.406-426.667 426.667-426.667c235.26 0 426.667 191.406 426.667 426.667s-191.406 426.667-426.667 426.667zM469.333 256c-188.208 0-341.333 153.125-341.333 341.333s153.125 341.333 341.333 341.333c188.208 0 341.333-153.125 341.333-341.333s-153.125-341.333-341.333-341.333z"></path>
<path fill="#335262" d="M469.333 213.333c-58.813 0-106.667-47.854-106.667-106.667s47.854-106.667 106.667-106.667c58.813 0 106.667 47.854 106.667 106.667s-47.854 106.667-106.667 106.667zM469.333 42.667c-35.292 0-64 28.708-64 64s28.708 64 64 64c35.292 0 64-28.708 64-64s-28.708-64-64-64z"></path>
<path fill="#e86c60" d="M439.164 567.164c16.662-16.662 211.189-150.849 211.189-150.849s-134.187 194.527-150.849 211.189c-16.662 16.662-43.677 16.662-60.34 0s-16.662-43.677 0-60.34z"></path>
<path fill="#b3b3b3" d="M469.333 384c-11.792 0-21.333-9.552-21.333-21.333v-42.667c0-11.781 9.542-21.333 21.333-21.333s21.333 9.552 21.333 21.333v42.667c0 11.781-9.542 21.333-21.333 21.333z"></path>
<path fill="#b3b3b3" d="M682.667 597.333c0-11.792 9.552-21.333 21.333-21.333h42.667c11.781 0 21.333 9.542 21.333 21.333s-9.552 21.333-21.333 21.333h-42.667c-11.781 0-21.333-9.542-21.333-21.333z"></path>
<path fill="#b3b3b3" d="M469.333 810.667c11.792 0 21.333 9.552 21.333 21.333v42.667c0 11.781-9.542 21.333-21.333 21.333s-21.333-9.552-21.333-21.333v-42.667c0-11.781 9.542-21.333 21.333-21.333z"></path>
<path fill="#b3b3b3" d="M256 597.333c0 11.792-9.552 21.333-21.333 21.333h-42.667c-11.781 0-21.333-9.542-21.333-21.333s9.552-21.333 21.333-21.333h42.667c11.781 0 21.333 9.542 21.333 21.333z"></path>
<path fill="#b3b3b3" d="M856.993 317.856l-150.849-150.849c-8.331-8.331-8.331-21.839 0-30.17l45.255-45.255c8.331-8.331 21.839-8.331 30.17 0l150.849 150.849c8.331 8.331 8.331 21.839 0 30.17l-45.255 45.255c-8.331 8.331-21.839 8.331-30.17 0z"></path>
<path fill="#335262" d="M213.333 330.667c-8.188 0-16.375-3.125-22.625-9.375l-85.333-85.333c-12.5-12.49-12.5-32.76 0-45.25 12.5-12.5 32.75-12.5 45.25 0l85.333 85.333c12.5 12.49 12.5 32.76 0 45.25-6.25 6.25-14.437 9.375-22.625 9.375z"></path>
<path fill="#b3b3b3" d="M81.673 317.856l150.849-150.849c8.331-8.331 8.331-21.839 0-30.17l-45.255-45.255c-8.331-8.331-21.839-8.331-30.17 0l-150.849 150.849c-8.331 8.331-8.331 21.839 0 30.17l45.255 45.255c8.331 8.331 21.839 8.331 30.17 0z"></path>
</svg>
