<?xml version="1.0" standalone="no"?>
<!DOCTYPE svg PUBLIC "-//W3C//DTD SVG 1.1//EN" "http://www.w3.org/Graphics/SVG/1.1/DTD/svg11.dtd" >
<svg xmlns="http://www.w3.org/2000/svg">
<metadata>Generated by IcoMoon</metadata>
<defs>
<font id="icomoon" horiz-adv-x="1024">
<font-face units-per-em="1024" ascent="960" descent="-64" />
<missing-glyph horiz-adv-x="1024" />
<glyph unicode="&#x20;" horiz-adv-x="512" d="" />
<glyph unicode="&#xe900;" d="M845.913 514.783c0-221.298-179.398-400.696-400.696-400.696s-400.696 179.398-400.696 400.696c0 221.298 179.398 400.696 400.696 400.696s400.696-179.398 400.696-400.696z" />
<glyph unicode="&#xe901;" d="M445.217 69.565c-245.489 0-445.217 199.728-445.217 445.217s199.728 445.217 445.217 445.217c245.489 0 445.217-199.728 445.217-445.217s-199.728-445.217-445.217-445.217zM445.217 870.957c-196.391 0-356.174-159.783-356.174-356.174s159.783-356.174 356.174-356.174c196.391 0 356.174 159.783 356.174 356.174s-159.783 356.174-356.174 356.174z" />
<glyph unicode="&#xe902;" d="M289.391 336.696c-5.696 0-11.391 2.174-15.739 6.522-8.696 8.696-8.696 22.783 0 31.478l155.826 155.826c8.696 8.696 22.783 8.696 31.478 0s8.696-22.783 0-31.478l-155.826-155.826c-4.348-4.348-10.043-6.522-15.739-6.522z" />
<glyph unicode="&#xe903;" d="M445.217 492.522c-12.304 0-22.261 9.967-22.261 22.261v222.609c0 12.294 9.957 22.261 22.261 22.261s22.261-9.967 22.261-22.261v-222.609c0-12.294-9.957-22.261-22.261-22.261z" />
<glyph unicode="&#xe904;" d="M667.826 492.522h-222.609c-12.304 0-22.261 9.967-22.261 22.261s9.957 22.261 22.261 22.261h222.609c12.304 0 22.261-9.967 22.261-22.261s-9.957-22.261-22.261-22.261z" />
<glyph unicode="&#xe905;" d="M512 514.783c0-36.883-29.9-66.783-66.783-66.783s-66.783 29.9-66.783 66.783c0 36.883 29.9 66.783 66.783 66.783s66.783-29.9 66.783-66.783z" />
<glyph unicode="&#xe906;" d="M890.435 514.783c0 51.897-9.387 101.53-25.784 147.882-26.904 5.224-56.231 7.944-85.52 7.944-99.565 0-200.348-30.587-200.348-89.043v-66.783c0-7.955 2.012-15.345 5.488-22.261-3.476-6.916-5.488-14.306-5.488-22.261v-66.783c0-7.955 2.012-15.345 5.488-22.261-3.476-6.916-5.488-14.306-5.488-22.261v-66.783c0-7.955 2.012-15.345 5.488-22.261-3.476-6.916-5.488-14.306-5.488-22.261v-66.783c0-7.955 2.012-15.345 5.488-22.261-3.476-6.916-5.488-14.306-5.488-22.261v-44.522h4.709c177.951 58.336 306.943 225.758 306.943 422.957z" />
<glyph unicode="&#xe907;" d="M1001.739 114.087h-356.174c-12.294 0-22.261-9.967-22.261-22.261v-66.783c0-58.457 100.783-89.043 200.348-89.043s200.348 30.587 200.348 89.043v66.783c0 12.294-9.967 22.261-22.261 22.261z" />
<glyph unicode="&#xe908;" d="M823.652 180.87c-99.565 0-200.348-30.587-200.348-89.043s100.783-89.043 200.348-89.043c99.565 0 200.348 30.587 200.348 89.043s-100.783 89.043-200.348 89.043z" />
<glyph unicode="&#xe909;" d="M1001.739 225.391h-356.174c-12.294 0-22.261-9.967-22.261-22.261v-66.783c0-58.457 100.783-89.043 200.348-89.043s200.348 30.587 200.348 89.043v66.783c0 12.294-9.967 22.261-22.261 22.261z" />
<glyph unicode="&#xe90a;" d="M823.652 292.174c-99.565 0-200.348-30.587-200.348-89.043s100.783-89.043 200.348-89.043c99.565 0 200.348 30.587 200.348 89.043s-100.783 89.043-200.348 89.043z" />
<glyph unicode="&#xe90b;" d="M1001.739 336.696h-356.174c-12.294 0-22.261-9.967-22.261-22.261v-66.783c0-58.457 100.783-89.043 200.348-89.043s200.348 30.587 200.348 89.043v66.783c0 12.294-9.967 22.261-22.261 22.261z" />
<glyph unicode="&#xe90c;" d="M823.652 403.478c-99.565 0-200.348-30.587-200.348-89.043s100.783-89.043 200.348-89.043c99.565 0 200.348 30.587 200.348 89.043s-100.783 89.043-200.348 89.043z" />
<glyph unicode="&#xe90d;" d="M1001.739 448h-356.174c-12.294 0-22.261-9.967-22.261-22.261v-66.783c0-58.457 100.783-89.043 200.348-89.043s200.348 30.587 200.348 89.043v66.783c0 12.294-9.967 22.261-22.261 22.261z" />
<glyph unicode="&#xe90e;" d="M823.652 514.783c-99.565 0-200.348-30.587-200.348-89.043s100.783-89.043 200.348-89.043c99.565 0 200.348 30.587 200.348 89.043s-100.783 89.043-200.348 89.043z" />
<glyph unicode="&#xe90f;" d="M1001.739 559.304h-356.174c-12.294 0-22.261-9.967-22.261-22.261v-66.783c0-58.457 100.783-89.043 200.348-89.043s200.348 30.587 200.348 89.043v66.783c0 12.294-9.967 22.261-22.261 22.261z" />
<glyph unicode="&#xe910;" d="M823.652 626.087c-99.565 0-200.348-30.587-200.348-89.043s100.783-89.043 200.348-89.043c99.565 0 200.348 30.587 200.348 89.043s-100.783 89.043-200.348 89.043z" />
<glyph unicode="&#xe911;" horiz-adv-x="1260" d="M934.957 552.455h-767.144c-13.24 0-23.973 10.733-23.973 23.973v359.599c0 13.24 10.733 23.973 23.973 23.973h767.144c13.24 0 23.973-10.733 23.973-23.973v-359.599c0-13.24-10.733-23.973-23.973-23.973z" />
<glyph unicode="&#xe912;" horiz-adv-x="1260" d="M1006.876 552.455h-910.983c-13.24 0-23.973 10.733-23.973 23.973v263.706c0 13.24 10.733 23.973 23.973 23.973h910.983c13.24 0 23.973-10.733 23.973-23.973v-263.706c0-13.24-10.733-23.973-23.973-23.973z" />
<glyph unicode="&#xe913;" horiz-adv-x="1260" d="M1078.796 49.017h-1054.823c-13.239 0-23.973 10.734-23.973 23.973v671.251c0 13.239 10.734 23.973 23.973 23.973h1054.823c13.239 0 23.973-10.734 23.973-23.973v-671.251c0-13.239-10.734-23.973-23.973-23.973z" />
<glyph unicode="&#xe914;" horiz-adv-x="1260" d="M887.010 696.294h-671.251c0-79.441-64.399-143.839-143.839-143.839v-287.679c79.441 0 143.839-64.399 143.839-143.839h671.251c0 79.441 64.399 143.839 143.839 143.839v287.679c-79.441 0-143.839 64.399-143.839 143.839z" />
<glyph unicode="&#xe915;" horiz-adv-x="1260" d="M719.197 408.615c0-92.68-75.132-167.813-167.813-167.813s-167.813 75.132-167.813 167.813c0 92.68 75.132 167.813 167.813 167.813s167.813-75.132 167.813-167.813z" />
<glyph unicode="&#xe916;" horiz-adv-x="1260" d="M1063.385-64c-108.583 0-196.923 88.34-196.923 196.923s88.34 196.923 196.923 196.923c108.583 0 196.923-88.34 196.923-196.923s-88.34-196.923-196.923-196.923z" />
<glyph unicode="&#xe917;" horiz-adv-x="1260" d="M1157.565 158.609h-188.361c-4.729 0-8.562-3.833-8.562-8.562v-34.247c0-4.729 3.833-8.562 8.562-8.562h188.361c4.729 0 8.562 3.833 8.562 8.562v34.247c0 4.729-3.833 8.562-8.562 8.562z" />
<glyph unicode="&#xe918;" d="M845.913 603.826c0-73.766-59.799-133.565-133.565-133.565s-133.565 59.799-133.565 133.565c0 73.766 59.799 133.565 133.565 133.565s133.565-59.799 133.565-133.565z" />
<glyph unicode="&#xe919;" d="M534.261 826.435c0-73.766-59.799-133.565-133.565-133.565s-133.565 59.799-133.565 133.565c0 73.766 59.799 133.565 133.565 133.565s133.565-59.799 133.565-133.565z" />
<glyph unicode="&#xe91a;" d="M445.217 804.174h-89.043c-12.304 0-22.261 9.957-22.261 22.261s9.957 22.261 22.261 22.261h89.043c12.304 0 22.261-9.957 22.261-22.261s-9.957-22.261-22.261-22.261z" />
<glyph unicode="&#xe91b;" d="M756.87 581.565h-89.043c-12.304 0-22.261 9.957-22.261 22.261s9.957 22.261 22.261 22.261h89.043c12.304 0 22.261-9.957 22.261-22.261s-9.957-22.261-22.261-22.261z" />
<glyph unicode="&#xe91c;" d="M957.479 197.346l-390.025-33.915c-36.108-3.14-72.315 4.813-103.784 22.795l-107.497 61.427h250.828c33.593 0 60.824 27.232 60.824 60.824v0c0 29.27-20.847 54.389-49.615 59.783l-225.219 42.229c-54.11 10.145-109.044 15.251-164.097 15.251h-184.373v-322.315l366.174-152.652c40.533-15.194 85.376-14.981 126.631-4.565l486.674 190.152c0 35.902-30.753 64.098-66.521 60.987z" />
<glyph unicode="&#xe91d;" d="M133.565 2.783h-111.304c-12.294 0-22.261 9.967-22.261 22.261v422.957c0 12.294 9.967 22.261 22.261 22.261h111.304c12.294 0 22.261-9.967 22.261-22.261v-422.957c0-12.294-9.967-22.261-22.261-22.261z" />
<glyph unicode="&#xe91e;" d="M1001.739-64h-979.478c-12.294 0-22.261 9.957-22.261 22.261v422.957c0 12.304 9.967 22.261 22.261 22.261h979.478c12.294 0 22.261-9.957 22.261-22.261v-422.957c0-12.304-9.967-22.261-22.261-22.261z" />
<glyph unicode="&#xe91f;" d="M845.913 225.391h-356.174c-12.294 0-22.261 9.957-22.261 22.261s9.967 22.261 22.261 22.261h356.174c12.294 0 22.261-9.957 22.261-22.261s-9.967-22.261-22.261-22.261z" />
<glyph unicode="&#xe920;" d="M845.913 69.565h-667.826c-12.294 0-22.261 9.957-22.261 22.261s9.967 22.261 22.261 22.261h667.826c12.294 0 22.261-9.957 22.261-22.261s-9.967-22.261-22.261-22.261z" />
<glyph unicode="&#xe921;" d="M594.522 515.967l-89.043 89.043c-8.696 8.696-22.783 8.696-31.478 0l-267.13-267.13c-27.749-27.749-31.986-69.893-13.39-102.433l-31.132-31.132c-8.696-8.696-8.696-22.783 0-31.478 4.348-4.348 10.043-6.522 15.739-6.522s11.391 2.174 15.739 6.522l31.129 31.129c13.057-7.463 27.548-11.531 42.175-11.531 21.826 0 43.652 8.304 60.261 24.924l267.13 267.13c8.696 8.696 8.696 22.783 0 31.478z" />
<glyph unicode="&#xe922;" d="M779.13 455.706c-5.696 0-11.391 2.174-15.739 6.522-8.696 8.696-8.696 22.783 0 31.478l162.348 162.348-51.044 51.044c-8.696 8.696-8.696 22.783 0 31.478s22.783 8.696 31.478 0l66.783-66.783c8.696-8.696 8.696-22.783 0-31.478l-178.087-178.087c-4.348-4.348-10.043-6.522-15.739-6.522z" />
<glyph unicode="&#xe923;" d="M906.174 916.663c-57.783 57.783-151.783 57.783-209.565 0l-267.13-267.13c-8.696-8.696-8.696-22.783 0-31.478l178.087-178.087c4.348-4.348 10.043-6.522 15.739-6.522s11.391 2.174 15.739 6.522l267.13 267.13c57.783 57.772 57.783 151.794 0 209.565z" />
<glyph unicode="&#xe924;" horiz-adv-x="975" d="M509.784 583.203h221.645v-265.974h-221.645v265.974z" />
<glyph unicode="&#xe925;" horiz-adv-x="975" d="M287.979-59.567c-12.153 0-22.005 9.782-22.005 22.327v276.735c0 36.811 26.556 79.931 59.642 96.474l184.167 92.084c0 0 44.329-44.329 110.823-44.329s110.823 44.329 110.823 44.329l184.167-92.084c32.939-16.47 59.642-59.749 59.642-96.474v-276.735c0-12.331-10.026-22.327-22.005-22.327h-665.255z" />
<glyph unicode="&#xe926;" horiz-adv-x="975" d="M797.922 649.697c0-97.929-79.387-177.316-177.316-177.316s-177.316 79.387-177.316 177.316v66.494c0 97.929 79.387 177.316 177.316 177.316s177.316-79.387 177.316-177.316v-66.494z" />
<glyph unicode="&#xe927;" horiz-adv-x="975" d="M797.922 694.026v110.824c0 48.768-39.706 88.657-88.685 88.657h-11.055l-23.272 46.543c-5.629 11.257-19.133 16.287-30.43 11.768l-139.45-55.78c-34.117-13.647-61.741-54.483-61.741-91.227v-110.785c0 48.965 39.694 88.658 88.658 88.658h177.316c48.965 0 88.658-39.694 88.658-88.658z" />
<glyph unicode="&#xe928;" horiz-adv-x="975" d="M132.987 494.545c0 122.411 99.234 221.645 221.645 221.645s221.645-99.234 221.645-221.645v-177.172c0-49.044-39.729-88.802-88.641-88.802h-266.008c-48.955 0-88.641 39.762-88.641 88.802v177.172z" />
<glyph unicode="&#xe929;" horiz-adv-x="975" d="M243.81 361.558h221.645v-252.964h-221.645v252.964z" />
<glyph unicode="&#xe92a;" horiz-adv-x="975" d="M22.005-59.567c-12.153 0-22.005 9.902-22.005 22.195v55.322c0 36.756 26.556 79.83 59.643 96.374l184.167 92.084c0 0 44.329-44.329 110.823-44.329s110.823 44.329 110.823 44.329l184.167-92.084c32.94-16.47 59.642-59.673 59.642-96.374v-55.322c0-12.258-10.026-22.195-22.005-22.195h-665.255z" />
<glyph unicode="&#xe92b;" horiz-adv-x="975" d="M177.316 458.294v-32.239c0-97.766 79.55-177.316 177.316-177.316s177.316 79.55 177.316 177.316v32.239c0 26.708-21.651 48.359-48.359 48.359-56.144 0-104.838 31.892-128.957 78.548-24.119-46.656-72.813-78.548-128.957-78.548-26.708 0-48.359-21.651-48.359-48.359z" />
<glyph unicode="&#xe92c;" d="M957.213-19.48h-890.444c-12.315 0-22.259 9.977-22.259 22.259v178.092c0 12.286 9.949 22.259 22.259 22.259h890.444c12.315 0 22.259-9.977 22.259-22.259v-178.092c0-12.286-9.949-22.259-22.259-22.259z" />
<glyph unicode="&#xe92d;" d="M690.083 692.871c-12.315 0-22.259 9.977-22.259 22.259v155.832h-311.649v-155.832c0-12.286-9.949-22.259-22.259-22.259s-22.259 9.977-22.259 22.259v178.092c0 12.286 9.949 22.259 22.259 22.259h356.177c12.315 0 22.259-9.977 22.259-22.259v-178.092c0-12.286-9.949-22.259-22.259-22.259z" />
<glyph unicode="&#xe92e;" d="M1001.741 158.612h-979.482c-12.286 0-22.259 9.977-22.259 22.259v534.259c0 12.286 9.977 22.259 22.259 22.259h979.482c12.286 0 22.259-9.977 22.259-22.259v-534.259c0-12.286-9.977-22.259-22.259-22.259z" />
<glyph unicode="&#xe92f;" d="M623.305 492.52h-66.778v66.778c0 12.286-9.977 22.259-22.259 22.259h-44.519c-12.286 0-22.259-9.977-22.259-22.259v-66.778h-66.778c-12.286 0-22.259-9.977-22.259-22.259v-44.519c0-12.286 9.977-22.259 22.259-22.259h66.778v-66.778c0-12.286 9.977-22.259 22.259-22.259h44.519c12.286 0 22.259 9.977 22.259 22.259v66.778h66.778c12.286 0 22.259 9.977 22.259 22.259v44.519c0 12.286-9.977 22.259-22.259 22.259z" />
<glyph unicode="&#xe930;" d="M287.89 672.11l-195.048-195.048c-123.782-123.782-123.782-324.462 0-448.244s324.462-123.782 448.244 0l195.048 195.048-448.244 448.244z" />
<glyph unicode="&#xe931;" d="M931.157 418.938c123.782 123.782 123.782 324.462 0 448.244s-324.462 123.782-448.244 0l-195.048-195.048 448.244-448.244 195.048 195.048z" />
<glyph unicode="&#xe932;" d="M844.971 756.59c-6.242 0-12.483 2.389-17.237 7.144-32.256 32.232-75.093 49.981-120.686 49.981s-88.43-17.749-120.686-49.981c-9.533-9.533-24.942-9.533-34.475 0-9.533 9.509-9.533 24.942 0 34.475 41.448 41.448 96.549 64.268 155.16 64.268s113.713-22.821 155.16-64.268c9.533-9.533 9.533-24.966 0-34.475-4.779-4.779-10.996-7.144-17.237-7.144z" />
<glyph unicode="&#xe933;" glyph-name="heart" horiz-adv-x="1071" d="M768 960c-90.659 0-175.5-40.352-232.727-109.341-57.227 68.989-142.068 109.341-232.727 109.341-166.818 0-302.545-135.716-302.545-302.545 0-287 499.273-698.807 520.546-716.193 4.273-3.511 9.5-5.261 14.727-5.261s10.455 1.75 14.727 5.261c21.273 17.386 520.546 429.193 520.546 716.193 0 166.83-135.727 302.545-302.545 302.545z" />
<glyph unicode="&#xe934;" glyph-name="validation-check" d="M512-64c-282.317 0-512 229.683-512 512s229.683 512 512 512c282.317 0 512-229.683 512-512s-229.683-512-512-512zM395.172 153.506l444.572 444.572-77.794 77.794-366.778-366.778-146.711 146.711-77.794-77.794 224.505-224.505z" />
<glyph unicode="&#xe935;" horiz-adv-x="1001" d="M698.182 653.871l-142.231 12.265-55.587 130.956-55.587-131.153-142.231-12.067 108.009-93.568-32.442-139.066 122.252 73.786 122.252-73.786-32.244 139.066z" />
<glyph unicode="&#xe936;" horiz-adv-x="1001" d="M698.182 653.871l-142.231 12.265-55.587 130.956-55.587-131.153-142.231-12.067 108.009-93.568-32.442-139.066 122.252 73.786 122.252-73.786-32.244 139.066z" />
<glyph unicode="&#xe937;" glyph-name="star-disabled" horiz-adv-x="1001" d="M698.182 653.871l-142.231 12.265-55.587 130.956-55.587-131.153-142.231-12.067 108.009-93.568-32.442-139.066 122.252 73.786 122.252-73.786-32.244 139.066z" />
<glyph unicode="&#xe938;" d="M512-64c-282.315 0-512 229.685-512 512s229.685 512 512 512c282.315 0 512-229.685 512-512s-229.685-512-512-512z" />
<glyph unicode="&#xe939;" d="M823.652-64h-801.391c-12.31 0-22.261 9.951-22.261 22.261v979.478c0 12.31 9.951 22.261 22.261 22.261h801.391c12.31 0 22.261-9.951 22.261-22.261v-979.478c0-12.31-9.951-22.261-22.261-22.261z" />
<glyph unicode="&#xe93a;" horiz-adv-x="736" d="M476.235 72.471c0-59.777-48.459-108.235-108.235-108.235s-108.235 48.459-108.235 108.235c0 59.777 48.459 108.235 108.235 108.235s108.235-48.459 108.235-108.235z" />
<glyph unicode="&#xe93b;" horiz-adv-x="939" d="M725.333 629.333c-8.188 0-16.375 3.125-22.625 9.375-12.5 12.49-12.5 32.76 0 45.25l85.333 85.333c12.5 12.5 32.75 12.5 45.25 0 12.5-12.49 12.5-32.76 0-45.25l-85.333-85.333c-6.25-6.25-14.437-9.375-22.625-9.375z" />
<glyph unicode="&#xe93c;" glyph-name="small-check" horiz-adv-x="1126" d="M394.24 335.36l-225.28 225.28-168.96-168.96 394.24-394.24 732.16 732.16-168.96 168.96z" />
<glyph unicode="&#xe93d;" glyph-name="dot" d="M1024 448c0-282.77-229.23-512-512-512s-512 229.23-512 512c0 282.77 229.23 512 512 512s512-229.23 512-512z" />
<glyph unicode="&#xe93e;" glyph-name="close" d="M950.886 960l-438.886-438.886-438.835 438.886-73.165-73.114 438.886-438.886-438.886-438.886 73.165-73.114 438.835 438.886 438.886-438.886 73.114 73.114-438.835 438.886 438.835 438.886z" />
<glyph unicode="&#xe93f;" glyph-name="arrow" horiz-adv-x="1229" d="M645.428 803.294l108.612 108.612 480.972-480.972-480.972-480.972-108.612 108.612 372.361 372.361zM25.6 354.133v153.6h1006.933v-153.6z" />
<glyph unicode="&#xe940;" glyph-name="side-chevron" horiz-adv-x="658" d="M31.177 78.903l362.91 363.703-362.91 363.703 111.726 111.726 475.429-475.429-475.429-475.429z" />
<glyph unicode="&#xe941;" glyph-name="calendar" d="M960 832h-128v128h-128v-128h-128v128h-128v-128h-128v128h-128v-128h-128c-35.392 0-64-28.608-64-64v-768c0-35.392 28.608-64 64-64h896c35.392 0 64 28.608 64 64v768c0 35.392-28.608 64-64 64zM896 64h-768v576h768v-576zM256 512h128v-128h-128v128zM448 512h128v-128h-128v128zM256 320h128v-128h-128v128zM448 320h128v-128h-128v128zM640 512h128v-128h-128v128zM640 320h128v-128h-128v128z" />
<glyph unicode="&#xe942;" glyph-name="wheelchair" d="M810.667 448c0 23.369-19.297 42.667-42.667 42.667h-469.333v85.333h469.333c70.497 0 128-57.503 128-128v-85.333h-405.333v85.333h320zM256 874.667h-128v85.333h213.333v-512h-85.333zM256 661.333v85.333h512v-85.333zM810.667 405.333h85.333v-170.667h-85.333zM853.333-64c-94.257 0-170.667 76.41-170.667 170.667s76.41 170.667 170.667 170.667c94.257 0 170.667-76.41 170.667-170.667s-76.41-170.667-170.667-170.667zM853.333 21.333c47.128 0 85.333 38.205 85.333 85.333s-38.205 85.333-85.333 85.333c-47.128 0-85.333-38.205-85.333-85.333s38.205-85.333 85.333-85.333zM298.667-64c-164.949 0-298.667 133.718-298.667 298.667s133.718 298.667 298.667 298.667c164.949 0 298.667-133.718 298.667-298.667s-133.718-298.667-298.667-298.667zM298.667 21.333c117.821 0 213.333 95.513 213.333 213.333s-95.513 213.333-213.333 213.333c-117.821 0-213.333-95.513-213.333-213.333s95.513-213.333 213.333-213.333z" />
<glyph unicode="&#xe943;" glyph-name="square-upload" d="M448 409.6v550.4h128v-550.4l256 256 89.6-89.6-364.8-364.8c-25.6-25.6-64-25.6-89.6 0l-364.8 364.8 89.6 89.6 256-256zM896 64h-768v192h-128v-256c0-38.4 25.6-64 64-64h896c38.4 0 64 25.6 64 64v256h-128v-192z" />
<glyph unicode="&#xe944;" glyph-name="pint" d="M321.164 840.533v-201.697h-102.4v304.097h586.473v-304.097h-102.4v201.697zM119.467 257.164h161.358v-102.4h-263.758v333.576c0 141.227 111.67 252.897 252.897 252.897h484.073c141.227 0 252.897-111.67 252.897-252.897v-333.576h-263.758v102.4h161.358v231.176c0 84.673-65.824 150.497-150.497 150.497h-484.073c-84.673 0-150.497-65.824-150.497-150.497v-231.176zM662.497 477.479v102.4h142.739v-102.4zM321.164 316.121v-260.655h381.673v260.655h-381.673zM805.236 418.521v-465.455h-586.473v465.455h586.473z" />
<glyph unicode="&#xe945;" d="M1001.739 214.791h-333.913v578.783h222.609c24.598 0 44.522-19.923 44.522-44.522v-208.851l76.733-38.378c7.546-3.762 12.31-11.464 12.31-19.901v-244.87c0-12.288-9.973-22.261-22.261-22.261z" />
<glyph unicode="&#xe946;" d="M623.304 214.791h-601.043c-12.288 0-22.261 9.973-22.261 22.261v578.783c0 12.288 9.973 22.261 22.261 22.261h578.783c12.288 0 22.261-9.973 22.261-22.261v-601.043z" />
<glyph unicode="&#xe947;" d="M311.652 526.443c-12.31 0-22.261 9.973-22.261 22.261v178.087c0 12.288 9.951 22.261 22.261 22.261s22.261-9.973 22.261-22.261v-178.087c0-12.288-9.951-22.261-22.261-22.261z" />
<glyph unicode="&#xe948;" d="M400.696 615.487h-178.087c-12.31 0-22.261 9.973-22.261 22.261s9.951 22.261 22.261 22.261h178.087c12.31 0 22.261-9.973 22.261-22.261s-9.951-22.261-22.261-22.261z" />
<glyph unicode="&#xe949;" d="M868.174 548.704h-133.565c-12.288 0-22.261 9.973-22.261 22.261v155.826c0 12.288 9.973 22.261 22.261 22.261h133.565c12.288 0 22.261-9.973 22.261-22.261v-155.826c0-12.288-9.973-22.261-22.261-22.261z" />
<glyph unicode="&#xe94a;" d="M0 437.4h623.304v-44.522h-623.304v44.522z" />
<glyph unicode="&#xe94b;" d="M667.826 437.4h356.174v-44.522h-356.174v44.522z" />
<glyph unicode="&#xe94c;" d="M623.304 793.573h44.522v-578.783h-44.522v578.783z" />
<glyph unicode="&#xe94d;" d="M200.348 81.226c-73.661 0-133.565 59.904-133.565 133.565s59.904 133.565 133.565 133.565c73.661 0 133.565-59.904 133.565-133.565s-59.904-133.565-133.565-133.565z" />
<glyph unicode="&#xe94e;" d="M200.348 148.008c-36.819 0-66.783 29.963-66.783 66.783s29.963 66.783 66.783 66.783c36.819 0 66.783-29.963 66.783-66.783s-29.963-66.783-66.783-66.783z" />
<glyph unicode="&#xe94f;" d="M845.913 81.226c-73.661 0-133.565 59.904-133.565 133.565s59.904 133.565 133.565 133.565c73.661 0 133.565-59.904 133.565-133.565s-59.904-133.565-133.565-133.565z" />
<glyph unicode="&#xe950;" d="M845.913 148.008c-36.819 0-66.783 29.963-66.783 66.783s29.963 66.783 66.783 66.783c36.819 0 66.783-29.963 66.783-66.783s-29.963-66.783-66.783-66.783z" />
<glyph unicode="&#xe951;" d="M48.037 196.686c-11.662 0-21.089 9.427-21.089 21.089v527.231c0 81.383 66.241 147.625 147.625 147.625h42.178c11.662 0 21.089-9.427 21.089-21.089s-9.427-21.089-21.089-21.089h-42.178c-58.143 0-105.446-47.303-105.446-105.446v-527.231c0-11.662-9.427-21.089-21.089-21.089z" />
<glyph unicode="&#xe952;" d="M975.963 196.686c-11.662 0-21.089 9.427-21.089 21.089v527.231c0 58.143-47.303 105.446-105.446 105.446h-42.178c-11.662 0-21.089 9.427-21.089 21.089s9.427 21.089 21.089 21.089h42.178c81.383 0 147.625-66.241 147.625-147.625v-527.231c0-11.662-9.427-21.089-21.089-21.089z" />
<glyph unicode="&#xe953;" d="M786.16 428.668c-85.433 0-159.013-51.163-192.123-124.384-19.339 24.189-48.737 40.027-82.037 40.027s-62.698-15.838-82.037-40.027c-33.11 73.222-106.69 124.384-192.123 124.384-116.286 0-210.892-94.606-210.892-210.892s94.606-210.892 210.892-210.892c116.286 0 210.892 94.606 210.892 210.892 0 5.694-0.401 11.283-0.865 16.85 0.316 1.413 0.865 2.742 0.865 4.239 0 34.882 28.386 63.268 63.268 63.268s63.268-28.386 63.268-63.268c0-1.497 0.548-2.826 0.865-4.239-0.464-5.568-0.865-11.156-0.865-16.85 0-116.286 94.606-210.892 210.892-210.892s210.892 94.606 210.892 210.892c0 116.286-94.606 210.892-210.892 210.892z" />
<glyph unicode="&#xe954;" d="M390.737 217.869c0-84.087-68.166-152.253-152.253-152.253s-152.253 68.166-152.253 152.253c0 84.087 68.166 152.253 152.253 152.253s152.253-68.166 152.253-152.253z" />
<glyph unicode="&#xe955;" d="M938.471 217.776c0-84.119-68.192-152.311-152.311-152.311s-152.311 68.192-152.311 152.311c0 84.119 68.192 152.311 152.311 152.311s152.311-68.192 152.311-152.311z" />
<glyph unicode="&#xe956;" glyph-name="hospital-32" d="M623.304-64h-222.609c-24.598 0-44.522 19.923-44.522 44.522v311.652h-311.652c-24.598 0-44.522 19.923-44.522 44.522v222.609c0 24.598 19.923 44.522 44.522 44.522h311.652v311.652c0 24.598 19.923 44.522 44.522 44.522h222.609c24.598 0 44.522-19.923 44.522-44.522v-311.652h311.652c24.598 0 44.522-19.923 44.522-44.522v-222.609c0-24.598-19.923-44.522-44.522-44.522h-311.652v-311.652c0-24.598-19.923-44.522-44.522-44.522z" />
<glyph unicode="&#xe957;" d="M302.545-47.895c-73.379 0-146.781 27.951-202.636 83.805-111.732 111.732-111.732 293.539 0 405.271l418.909 418.909c111.732 111.732 293.539 111.732 405.271 0s111.732-293.539 0-405.271l-418.909-418.909c-55.855-55.855-129.257-83.805-202.636-83.805z" />
<glyph unicode="&#xe958;" d="M467.456 143.453l-260.003 260.003c-18.176 18.176-18.176 47.639 0 65.815l283.276 283.276c18.176 18.176 47.639 18.176 65.815 0l260.003-260.003c18.176-18.176 18.176-47.639 0-65.815l-283.276-283.276c-18.176-18.176-47.639-18.176-65.815 0z" />
<glyph unicode="&#xe959;" d="M418.909 448c0-25.706-20.839-46.545-46.545-46.545s-46.545 20.839-46.545 46.545c0 25.706 20.839 46.545 46.545 46.545s46.545-20.839 46.545-46.545z" />
<glyph unicode="&#xe95a;" d="M558.545 587.636c0-25.706-20.839-46.545-46.545-46.545s-46.545 20.839-46.545 46.545c0 25.706 20.839 46.545 46.545 46.545s46.545-20.839 46.545-46.545z" />
<glyph unicode="&#xe95b;" d="M558.545 308.364c0-25.706-20.839-46.545-46.545-46.545s-46.545 20.839-46.545 46.545c0 25.706 20.839 46.545 46.545 46.545s46.545-20.839 46.545-46.545z" />
<glyph unicode="&#xe95c;" d="M698.182 448c0-25.706-20.839-46.545-46.545-46.545s-46.545 20.839-46.545 46.545c0 25.706 20.839 46.545 46.545 46.545s46.545-20.839 46.545-46.545z" />
<glyph unicode="&#xe95d;" d="M884.364-40.727h-744.727c-38.493 0-69.818 31.325-69.818 69.818v721.455c0 12.847 10.426 23.273 23.273 23.273h837.818c12.847 0 23.273-10.426 23.273-23.273v-721.455c0-38.493-31.325-69.818-69.818-69.818z" />
<glyph unicode="&#xe95e;" d="M1000.727 727.273h-977.455c-12.847 0-23.273 10.426-23.273 23.273v186.182c0 12.847 10.426 23.273 23.273 23.273h977.455c12.847 0 23.273-10.426 23.273-23.273v-186.182c0-12.847-10.426-23.273-23.273-23.273z" />
<glyph unicode="&#xe95f;" d="M744.727 192h-465.455c-12.847 0-23.273 10.426-23.273 23.273v325.818c0 12.847 10.426 23.273 23.273 23.273h465.455c12.847 0 23.273-10.426 23.273-23.273v-325.818c0-12.847-10.426-23.273-23.273-23.273z" />
<glyph unicode="&#xe960;" d="M139.636 773.818c-12.847 0-23.273 10.426-23.273 23.273v93.091c0 12.847 10.426 23.273 23.273 23.273s23.273-10.426 23.273-23.273v-93.091c0-12.847-10.426-23.273-23.273-23.273z" />
<glyph unicode="&#xe961;" d="M325.818 773.818c-12.847 0-23.273 10.426-23.273 23.273v93.091c0 12.847 10.426 23.273 23.273 23.273s23.273-10.426 23.273-23.273v-93.091c0-12.847-10.426-23.273-23.273-23.273z" />
<glyph unicode="&#xe962;" d="M512 773.818c-12.847 0-23.273 10.426-23.273 23.273v93.091c0 12.847 10.426 23.273 23.273 23.273s23.273-10.426 23.273-23.273v-93.091c0-12.847-10.426-23.273-23.273-23.273z" />
<glyph unicode="&#xe963;" d="M698.182 773.818c-12.847 0-23.273 10.426-23.273 23.273v93.091c0 12.847 10.426 23.273 23.273 23.273s23.273-10.426 23.273-23.273v-93.091c0-12.847-10.426-23.273-23.273-23.273z" />
<glyph unicode="&#xe964;" d="M628.364 424.727h-232.727c-12.847 0-23.273 10.426-23.273 23.273s10.426 23.273 23.273 23.273h232.727c12.847 0 23.273-10.426 23.273-23.273s-10.426-23.273-23.273-23.273z" />
<glyph unicode="&#xe965;" d="M628.364 285.091h-232.727c-12.847 0-23.273 10.426-23.273 23.273s10.426 23.273 23.273 23.273h232.727c12.847 0 23.273-10.426 23.273-23.273s-10.426-23.273-23.273-23.273z" />
<glyph unicode="&#xe966;" d="M884.364 773.818c-12.847 0-23.273 10.426-23.273 23.273v93.091c0 12.847 10.426 23.273 23.273 23.273s23.273-10.426 23.273-23.273v-93.091c0-12.847-10.426-23.273-23.273-23.273z" />
<glyph unicode="&#xe967;" d="M906.703-64c-48.421 0-83.066 34.694-99.401 55.369l-187.587 222.037c-37.352 43.569-71.607 63.927-107.715 63.927-45.422 0-83.554-34.645-107.544-63.732l-188.27-222.866c-31.695-36.425-64.878-54.735-98.889-54.735-64.683 0-117.297 52.614-117.297 117.297l48.421 489.911c-8.143 28.062-48.421 170.959-48.421 246.126 0 94.11 76.556 170.667 170.667 170.667 36.766 0 107.179-16.823 209.286-50.030 85.504-27.77 178.517-27.794 264.070 0 102.132 33.207 172.544 50.030 209.31 50.030 94.11 0 170.667-76.556 170.667-170.667 0-75.166-40.277-218.063-48.421-246.101l48.299-487.522c0.122-67.096-52.492-119.71-117.175-119.71z" />
<glyph unicode="&#xe968;" d="M511.829 645.169c-51.054 0.049-102.059 5.925-151.65 17.457-13.117 3.048-21.285 16.165-18.237 29.282 3.048 13.141 16.14 21.236 29.282 18.237 46.007-10.703 93.306-16.165 140.605-16.213 47.494 0.049 94.915 5.51 140.946 16.213 13.044 3.048 26.234-5.096 29.282-18.237 3.048-13.117-5.096-26.234-18.237-29.282-49.615-11.532-100.766-17.408-151.991-17.457z" />
<glyph unicode="&#xe969;" horiz-adv-x="1152" d="M593.455 689.455c-6.699 0-13.398 2.557-18.511 7.67-10.227 10.219-10.227 26.804 0 37.023l69.818 69.818c10.227 10.227 26.796 10.227 37.023 0 10.227-10.219 10.227-26.804 0-37.023l-69.818-69.818c-5.113-5.114-11.812-7.67-18.511-7.67z" />
<glyph unicode="&#xe96a;" horiz-adv-x="1152" d="M698.182 471.273c0-173.518-140.664-314.182-314.182-314.182s-314.182 140.664-314.182 314.182c0 173.518 140.664 314.182 314.182 314.182s314.182-140.664 314.182-314.182z" />
<glyph unicode="&#xe96b;" horiz-adv-x="1152" d="M384 122.182c-192.486 0-349.091 156.605-349.091 349.091s156.605 349.091 349.091 349.091c192.486 0 349.091-156.605 349.091-349.091s-156.605-349.091-349.091-349.091zM384 750.545c-153.989 0-279.273-125.284-279.273-279.273s125.284-279.273 279.273-279.273c153.989 0 279.273 125.284 279.273 279.273s-125.284 279.273-279.273 279.273z" />
<glyph unicode="&#xe96c;" horiz-adv-x="1152" d="M384 785.455c-48.119 0-87.273 39.153-87.273 87.273s39.153 87.273 87.273 87.273c48.119 0 87.273-39.153 87.273-87.273s-39.153-87.273-87.273-87.273zM384 925.091c-28.875 0-52.364-23.489-52.364-52.364s23.489-52.364 52.364-52.364c28.875 0 52.364 23.489 52.364 52.364s-23.489 52.364-52.364 52.364z" />
<glyph unicode="&#xe96d;" horiz-adv-x="1152" d="M359.316 495.957c13.633 13.633 172.791 123.422 172.791 123.422s-109.789-159.158-123.422-172.791c-13.633-13.633-35.736-13.633-49.369 0s-13.633 35.736 0 49.369z" />
<glyph unicode="&#xe96e;" horiz-adv-x="1152" d="M384 645.818c-9.648 0-17.455 7.815-17.455 17.455v34.909c0 9.639 7.807 17.455 17.455 17.455s17.455-7.815 17.455-17.455v-34.909c0-9.639-7.807-17.455-17.455-17.455z" />
<glyph unicode="&#xe96f;" horiz-adv-x="1152" d="M558.545 471.273c0 9.648 7.815 17.455 17.455 17.455h34.909c9.639 0 17.455-7.807 17.455-17.455s-7.815-17.455-17.455-17.455h-34.909c-9.639 0-17.455 7.807-17.455 17.455z" />
<glyph unicode="&#xe970;" horiz-adv-x="1152" d="M384 296.727c9.648 0 17.455-7.815 17.455-17.455v-34.909c0-9.639-7.807-17.455-17.455-17.455s-17.455 7.815-17.455 17.455v34.909c0 9.639 7.807 17.455 17.455 17.455z" />
<glyph unicode="&#xe971;" horiz-adv-x="1152" d="M209.455 471.273c0-9.648-7.815-17.455-17.455-17.455h-34.909c-9.639 0-17.455 7.807-17.455 17.455s7.815 17.455 17.455 17.455h34.909c9.639 0 17.455-7.807 17.455-17.455z" />
<glyph unicode="&#xe972;" horiz-adv-x="1152" d="M701.176 699.936l-123.422 123.422c-6.817 6.816-6.817 17.868 0 24.684l37.027 37.027c6.817 6.816 17.868 6.816 24.685 0l123.422-123.422c6.816-6.816 6.816-17.868 0-24.684l-37.027-37.027c-6.817-6.816-17.868-6.816-24.685 0z" />
<glyph unicode="&#xe973;" horiz-adv-x="1152" d="M174.545 689.455c-6.699 0-13.398 2.557-18.511 7.67l-69.818 69.818c-10.227 10.219-10.227 26.804 0 37.023 10.227 10.227 26.796 10.227 37.023 0l69.818-69.818c10.227-10.219 10.227-26.804 0-37.023-5.113-5.114-11.812-7.67-18.511-7.67z" />
<glyph unicode="&#xe974;" horiz-adv-x="1152" d="M66.824 699.936l123.422 123.422c6.816 6.816 6.816 17.868 0 24.684l-37.027 37.027c-6.816 6.816-17.868 6.816-24.684 0l-123.422-123.422c-6.816-6.816-6.816-17.868 0-24.684l37.027-37.027c6.816-6.816 17.868-6.816 24.684 0z" />
<glyph unicode="&#xe975;" horiz-adv-x="1152" d="M1096.039-42.667h-584.966c-19.125 0-34.628 15.498-34.628 34.628v252.599c0 19.13 15.503 34.628 34.628 34.628h584.966c19.125 0 34.628-15.498 34.628-34.628v-252.599c0-19.13-15.503-34.628-34.628-34.628z" />
<glyph unicode="&#xe976;" horiz-adv-x="1152" d="M1002.976 151.498h-212.715c-7.342 0-13.295 5.946-13.295 13.295s5.953 13.295 13.295 13.295h212.715c7.342 0 13.295-5.946 13.295-13.295s-5.953-13.295-13.295-13.295z" />
<glyph unicode="&#xe977;" horiz-adv-x="1152" d="M1002.976 58.435h-398.841c-7.342 0-13.295 5.946-13.295 13.295s5.953 13.295 13.295 13.295h398.841c7.342 0 13.295-5.946 13.295-13.295s-5.953-13.295-13.295-13.295z" />
<glyph unicode="&#xe978;" horiz-adv-x="1152" d="M852.839 325.036l-53.179 53.179c-5.193 5.193-13.606 5.193-18.799 0l-159.536-159.536c-16.572-16.572-19.103-41.741-7.997-61.175l-18.593-18.593c-5.193-5.193-5.193-13.606 0-18.799 2.597-2.597 5.998-3.895 9.4-3.895s6.803 1.298 9.4 3.895l18.591 18.591c7.798-4.457 16.452-6.887 25.188-6.887 13.035 0 26.070 4.96 35.989 14.885l159.536 159.536c5.193 5.193 5.193 13.606 0 18.799z" />
<glyph unicode="&#xe979;" horiz-adv-x="1152" d="M963.092 289.047c-3.402 0-6.803 1.298-9.4 3.895-5.193 5.193-5.193 13.606 0 18.799l96.958 96.958-30.484 30.484c-5.193 5.193-5.193 13.606 0 18.799s13.606 5.193 18.799 0l39.884-39.884c5.193-5.193 5.193-13.606 0-18.799l-106.357-106.357c-2.597-2.597-5.998-3.895-9.4-3.895z" />
<glyph unicode="&#xe97a;" horiz-adv-x="1152" d="M1038.965 564.34c-34.509 34.509-90.648 34.509-125.157 0l-159.536-159.536c-5.193-5.193-5.193-13.606 0-18.799l106.357-106.357c2.597-2.597 5.998-3.895 9.4-3.895s6.803 1.298 9.4 3.895l159.536 159.536c34.509 34.503 34.509 90.654 0 125.157z" />
<glyph unicode="&#xe97b;" glyph-name="triangle" horiz-adv-x="640" d="M640 448l-640 512v-1024z" />
<glyph unicode="&#xe97c;" glyph-name="note" horiz-adv-x="960" d="M646.4-19.2v249.6h249.6zM672 22.4h-96v297.6h297.6v-96h-201.6zM610.518 44.8l221.482 221.482v597.718h-736v-819.2h514.518zM0-51.2v1011.2h928v-733.482l-277.718-277.718h-650.282zM192 608v96h512v-96zM192 416v96h512v-96zM192 224v96h262.4v-96z" />
<glyph unicode="&#xe97d;" glyph-name="umbrella" d="M544 800h-64v160h64zM672 64v32h64v-32c0-70.697-57.303-128-128-128s-128 57.303-128 128v416h64v-416c0-35.351 28.649-64 64-64s64 28.649 64 64zM320 448h-64c0 168.106 93.921 323.698 239.485 411.409l33.031-54.818c-126.912-76.472-208.515-211.659-208.515-356.591zM768 448h-64c0 144.932-81.603 280.119-208.515 356.591l33.031 54.818c145.564-87.71 239.485-243.303 239.485-411.409zM991.676 452.544l5.243-36.544h-969.837l5.243 36.544c33.578 234.042 239.409 411.456 479.676 411.456s446.098-177.413 479.676-411.456zM512 800c-195.767 0-365.321-135.835-409.351-320h818.701c-44.029 184.165-213.584 320-409.351 320zM544 416h-64v448h64z" />
<glyph unicode="&#xe97e;" glyph-name="time-countdown" d="M544.508 416h195.048v-64h-260.063v256h65.016zM512-64c-251.351 0-455.111 200.576-455.111 448s203.76 448 455.111 448c251.351 0 455.111-200.576 455.111-448s-203.76-448-455.111-448zM512 0c215.444 0 390.095 171.923 390.095 384s-174.652 384-390.095 384c-215.444 0-390.095-171.923-390.095-384s174.652-384 390.095-384zM381.968 896v64h260.063v-64zM479.492 960h65.016v-192h-65.016z" />
<glyph unicode="&#xe97f;" glyph-name="bag" d="M384 874.667v-170.667h-85.333v256h426.667v-256h-85.333v170.667zM85.333 704v-682.667h853.333v682.667h-853.333zM1024 789.333v-853.333h-1024v853.333h1024zM768 490.667v-256h-128v-128h-256v128h-128v256h128v128h256v-128h128zM554.667 405.333v128h-85.333v-128h-128v-85.333h128v-128h85.333v128h128v85.333h-128z" />
<glyph unicode="&#xe980;" glyph-name="time-countdown-small" d="M812.8 940.8c-25.6 25.6-64 25.6-89.6 0s-25.6-64 0-89.6l51.2-51.2-57.6-57.6c-76.8 57.6-166.4 89.6-268.8 89.6-249.6 0-448-198.4-448-448s198.4-448 448-448c249.6 0 448 198.4 448 448 0 102.4-32 192-89.6 268.8l57.6 57.6 51.2-51.2c12.8-12.8 25.6-19.2 44.8-19.2s32 6.4 44.8 19.2c25.6 25.6 25.6 64 0 89.6l-192 192zM448 64c-179.2 0-320 140.8-320 320s140.8 320 320 320c179.2 0 320-140.8 320-320s-140.8-320-320-320zM512 576h-128v-256h256v128h-128z" />
<glyph unicode="&#xe981;" horiz-adv-x="1420" d="M1391.058 448.777l-617.11 48.206c-5.185 0.37-10.246-0.494-14.937-2.562l-555.51-246.893c-14.505-6.45-21.757-22.868-16.727-37.96l27.127-81.444c24.905-74.654 91.32-129.249 169.245-139.094 140.421-17.745 401.665-47.465 573.564-47.465 124.99 0 241.153 47.774 327.072 134.526 88.789 89.653 136.995 211.186 135.73 342.194-0.154 15.986-12.499 29.226-28.454 30.491z" />
<glyph unicode="&#xe982;" horiz-adv-x="1420" d="M709.818 589.66h-678.957c-17.036 0-30.862 13.826-30.862 30.862s13.826 30.862 30.862 30.862h678.957c17.036 0 30.862-13.826 30.862-30.862s-13.826-30.862-30.862-30.862z" />
<glyph unicode="&#xe983;" horiz-adv-x="1420" d="M527.271 743.968h-496.41c-17.036 0-30.862 13.826-30.862 30.862s13.826 30.862 30.862 30.862h496.41c17.036 0 30.862-13.826 30.862-30.862s-13.795-30.862-30.862-30.862z" />
<glyph unicode="&#xe984;" horiz-adv-x="1420" d="M925.85 960h-864.126c-34.102 0-61.723-27.621-61.723-61.723v-617.233c0-34.102 27.621-61.723 61.723-61.723h864.126c34.102 0 61.723 27.621 61.723 61.723v617.233c0 34.102-27.621 61.723-61.723 61.723z" />
<glyph unicode="&#xe985;" horiz-adv-x="1420" d="M0 805.692h956.711v-154.308h-956.711v154.308z" />
<glyph unicode="&#xe986;" horiz-adv-x="1420" d="M987.573 804.149c-10.246 0.679-20.461 1.543-30.862 1.543h-432.063c-17.036 0-30.862-13.826-30.862-30.862 0-102.121 83.049-185.17 185.17-185.17h92.585c11.789-106.473 115.515-215.013 216.032-258.158v472.646z" />
<glyph unicode="&#xe987;" horiz-adv-x="1420" d="M956.711 867.415h-432.063c-17.036 0-30.862-13.826-30.862-30.862 0-102.121 83.049-185.17 185.17-185.17h125.175c15.153-136.902 128.199-277.755 276.027-277.755 0.463 0 0.895 0 1.358 0.031l308.493 13.517c16.604 0.71 29.658 14.505 29.504 31.139-2.407 247.634-210.014 449.099-462.801 449.099z" />
<glyph unicode="&#xe988;" horiz-adv-x="1420" d="M123.447 527.937h432.063v-92.585h-432.063v92.585z" />
<glyph unicode="&#xe989;" d="M378.435 652.969v242.894c-150.705-44.886-269.412-163.592-314.298-314.298h242.894c18.612 28.462 42.942 52.792 71.404 71.404z" />
<glyph unicode="&#xe98a;" d="M716.969 581.565h242.894c-44.886 150.705-163.592 269.412-314.297 314.298v-242.894c28.462-18.612 52.792-42.942 71.404-71.404z" />
<glyph unicode="&#xe98b;" d="M307.031 314.435h-242.894c44.886-150.705 163.592-269.412 314.298-314.298v242.894c-28.462 18.611-52.792 42.942-71.404 71.404z" />
<glyph unicode="&#xe98c;" d="M645.565 243.031v-242.894c150.705 44.886 269.412 163.592 314.298 314.297h-242.894c-18.611-28.462-42.942-52.792-71.404-71.404z" />
<glyph unicode="&#xe98d;" d="M307.031 581.565h-284.77c-12.295 0-22.261-9.966-22.261-22.261v-222.609c0-12.295 9.966-22.261 22.261-22.261h284.77c-25.144 38.454-39.901 84.289-39.901 133.565s14.757 95.111 39.901 133.565z" />
<glyph unicode="&#xe98e;" d="M512 203.13c-49.276 0-95.111 14.757-133.565 39.901v-284.77c0-12.295 9.966-22.261 22.261-22.261h222.609c12.295 0 22.261 9.966 22.261 22.261v284.77c-38.454-25.144-84.289-39.901-133.565-39.901z" />
<glyph unicode="&#xe98f;" d="M1001.739 581.565h-284.77c25.144-38.454 39.901-84.289 39.901-133.565s-14.757-95.111-39.901-133.565h284.77c12.295 0 22.261 9.966 22.261 22.261v222.609c0 12.295-9.966 22.261-22.261 22.261z" />
<glyph unicode="&#xe990;" d="M623.304 960h-222.609c-12.295 0-22.261-9.966-22.261-22.261v-284.77c38.454 25.144 84.289 39.901 133.565 39.901s95.111-14.757 133.565-39.901v284.77c0 12.295-9.966 22.261-22.261 22.261z" />
<glyph unicode="&#xe991;" horiz-adv-x="925" d="M638.624-8.946h-154.151v462.452c0 12.161-9.86 22.022-22.022 22.022s-22.022-9.86-22.022-22.022v-462.452h-154.151c-12.161 0-22.022-9.86-22.022-22.022s9.86-22.022 22.022-22.022h352.344c12.161 0 22.022 9.86 22.022 22.022s-9.86 22.022-22.022 22.022z" />
<glyph unicode="&#xe992;" horiz-adv-x="925" d="M462.452 871.914c130.401-64.903 176.172-224.62 176.172-440.43h262.032c6.215 0 12.151 2.634 16.323 7.236 4.172 4.613 6.204 10.774 5.591 16.957-23.559 237.29-221.366 416.237-460.118 416.237z" />
<glyph unicode="&#xe993;" horiz-adv-x="925" d="M462.452 871.914c-238.742 0-436.548-178.936-460.118-416.237-0.613-6.183 1.419-12.344 5.591-16.957 4.172-4.602 10.107-7.236 16.322-7.236h262.032c0 215.811 45.771 375.527 176.172 440.43z" />
<glyph unicode="&#xe994;" horiz-adv-x="925" d="M462.452 871.914c-130.401-64.903-176.172-224.62-176.172-440.43h352.344c0 215.811-45.771 375.527-176.172 440.43z" />
<glyph unicode="&#xe995;" horiz-adv-x="925" d="M462.452 849.892c-12.161 0-22.022 9.86-22.022 22.022v66.065c0 12.161 9.86 22.022 22.022 22.022s22.022-9.86 22.022-22.022v-66.065c0-12.161-9.86-22.022-22.022-22.022z" />
<glyph unicode="&#xe996;" glyph-name="left" horiz-adv-x="585" d="M580.96 9.143l-68.96-68.96-507.817 507.817 507.817 507.817 68.96-68.96-438.857-438.857z" />
<glyph unicode="&#xe997;" glyph-name="right" horiz-adv-x="585" d="M4.183 9.143l68.96-68.96 507.817 507.817-507.817 507.817-68.96-68.96 438.857-438.857z" />
<glyph unicode="&#xe998;" horiz-adv-x="1135" d="M1072.193 960h-1023.457c-26.916 0-48.736-21.82-48.736-48.736v-925.985c0-26.916 21.82-48.736 48.736-48.736h1023.457c26.916 0 48.736 21.82 48.736 48.736v925.985c0 26.916-21.82 48.736-48.736 48.736z" />
<glyph unicode="&#xe999;" horiz-adv-x="1135" d="M842.352 578.587v-48.736h278.578v48.736z" />
<glyph unicode="&#xe99a;" horiz-adv-x="1135" d="M556.931 432.649l-102.672 77.005-89.679-179.344-144.768 265.419-103.303-180.774-57.682 57.684h-58.827v-48.736h38.645l88.524-88.524 91.643 160.378 147.648-270.678 105.265 210.545 92.272-69.203 132.455 152.741-36.815 31.922z" />
<glyph unicode="&#xe99b;" horiz-adv-x="1135" d="M852.881 545.743c0 45.356-31.137 83.146-73.104 94.022v320.235h-48.736v-320.235c-41.967-10.875-73.104-48.665-73.104-94.022s31.137-83.146 73.104-94.022v-515.179h48.736v515.179c41.967 10.875 73.104 48.665 73.104 94.022z" />
<glyph unicode="&#xe99c;" horiz-adv-x="1135" d="M867.714 537.268c0-61.439-49.806-111.245-111.245-111.245s-111.245 49.806-111.245 111.245c0 61.439 49.806 111.245 111.245 111.245s111.245-49.806 111.245-111.245z" />
<glyph unicode="&#xe99d;" d="M1024 915.478v-890.435c0-49.174-39.869-89.043-89.043-89.043h-845.913l89.043 333.913v645.565c0 24.598 19.923 44.522 44.522 44.522h756.87c24.598 0 44.522-19.923 44.522-44.522z" />
<glyph unicode="&#xe99e;" d="M823.652 692.87h-133.565c-12.31 0-22.261 9.973-22.261 22.261s9.951 22.261 22.261 22.261h133.565c12.31 0 22.261-9.973 22.261-22.261s-9.951-22.261-22.261-22.261z" />
<glyph unicode="&#xe99f;" d="M823.652 514.783h-133.565c-12.31 0-22.261 9.973-22.261 22.261s9.951 22.261 22.261 22.261h133.565c12.31 0 22.261-9.973 22.261-22.261s-9.951-22.261-22.261-22.261z" />
<glyph unicode="&#xe9a0;" d="M823.652 336.696h-445.217c-12.31 0-22.261 9.973-22.261 22.261s9.951 22.261 22.261 22.261h445.217c12.31 0 22.261-9.973 22.261-22.261s-9.951-22.261-22.261-22.261z" />
<glyph unicode="&#xe9a1;" d="M823.652 158.609h-445.217c-12.31 0-22.261 9.973-22.261 22.261s9.951 22.261 22.261 22.261h445.217c12.31 0 22.261-9.973 22.261-22.261s-9.951-22.261-22.261-22.261z" />
<glyph unicode="&#xe9a2;" d="M556.522 514.783h-178.087c-12.31 0-22.261 9.973-22.261 22.261v178.087c0 12.288 9.951 22.261 22.261 22.261h178.087c12.31 0 22.261-9.973 22.261-22.261v-178.087c0-12.288-9.951-22.261-22.261-22.261z" />
<glyph unicode="&#xe9a3;" d="M89.043-64c49.174 0 89.043 39.869 89.043 89.043v289.391h-155.826c-12.288 0-22.261-9.973-22.261-22.261v-267.13c0-49.174 39.869-89.043 89.043-89.043z" />
<glyph unicode="&#xe9a4;" glyph-name="award" horiz-adv-x="1084" d="M710.393 744.613v-100.392h-276.316v100.392zM183.961 693.427l205.669-274.201-80.311-60.239-252.338 336.421 203.643 254.553h623.224l203.64-254.551-252.292-336.42-80.316 60.232 205.633 274.202-124.916 156.145h-526.722zM244.153 870.241l81.191 59.047 269.293-370.283-81.191-59.047zM819.126 929.288l81.191-59.047-269.293-370.283-81.191 59.047zM572.235-12.891c-163.815 0-296.613 132.798-296.613 296.613s132.798 296.613 296.613 296.613c163.815 0 296.613-132.798 296.613-296.613s-132.798-296.613-296.613-296.613zM572.235 87.501c108.37 0 196.221 87.851 196.221 196.221s-87.851 196.221-196.221 196.221c-108.37 0-196.221-87.851-196.221-196.221s87.851-196.221 196.221-196.221z" />
<glyph unicode="&#xe9a5;" glyph-name="chat" d="M960 704h-64v-384c0-35.328-28.672-64-64-64h-395.008l-116.992-128h320l192-192v192h128c35.328 0 64 28.672 64 64v448c0 35.328-28.672 64-64 64zM64 960h640c35.328 0 64-28.672 64-64v-448c0-35.328-28.672-64-64-64h-320l-192-192v192h-128c-35.328 0-64 28.672-64 64v448c0 35.328 28.672 64 64 64z" />
<glyph unicode="&#xe9a6;" glyph-name="phone" d="M978.24 172.48l-164.992 166.016c-24.96 25.152-65.6 25.152-90.624 0.128l-146.624-146.624-320 320 146.816 146.816c24.96 24.96 25.024 65.472 0.064 90.496l-165.12 165.376c-25.024 25.024-65.536 25.024-90.56 0l-146.944-146.88-0.256 0.192c0-459.52 372.48-832 832-832l146.112 146.112c24.96 24.96 25.024 65.344 0.128 90.368zM1024 448h-128c0 211.776-172.224 384-384 384v128c282.304 0 512-229.696 512-512zM768 448h-128c0 70.592-57.408 128-128 128v128c141.184 0 256-114.816 256-256z" />
<glyph unicode="&#xe9a7;" glyph-name="video" horiz-adv-x="1243" d="M1130.39 960h-1017.351c-62.737 0-113.039-50.302-113.039-113.039v-678.234c0-62.171 50.302-113.039 113.039-113.039h282.597v-113.039h452.156v113.039h282.597c62.171 0 112.474 50.868 112.474 113.039l0.565 678.234c0 62.737-50.868 113.039-113.039 113.039zM847.792 507.844l-395.636-226.078v452.156l395.636-226.078z" />
<glyph unicode="&#xe9a8;" horiz-adv-x="1192" d="M77.747 338.025h-51.831c-14.324 0-25.916 11.604-25.916 25.916s11.591 25.916 25.916 25.916h51.831c14.324 0 25.916-11.604 25.916-25.916s-11.591-25.916-25.916-25.916z" />
<glyph unicode="&#xe9a9;" horiz-adv-x="1192" d="M228.053 706.032c-6.631 0-13.262 2.531-18.323 7.592l-36.267 36.279c-10.123 10.123-10.123 26.536 0 36.646 10.123 10.123 26.523 10.123 36.646 0l36.267-36.279c10.123-10.123 10.123-26.536 0-36.646-5.062-5.062-11.692-7.592-18.323-7.592z" />
<glyph unicode="&#xe9aa;" horiz-adv-x="1192" d="M596.060 856.337c-14.324 0-25.916 11.604-25.916 25.916v51.831c0 14.312 11.591 25.916 25.916 25.916s25.916-11.604 25.916-25.916v-51.831c0-14.312-11.591-25.916-25.916-25.916z" />
<glyph unicode="&#xe9ab;" horiz-adv-x="1192" d="M964.067 706.032c-6.631 0-13.262 2.531-18.323 7.592-10.123 10.111-10.123 26.523 0 36.646l36.267 36.279c10.123 10.123 26.523 10.123 36.646 0 10.123-10.111 10.123-26.523 0-36.646l-36.267-36.279c-5.062-5.062-11.692-7.592-18.323-7.592z" />
<glyph unicode="&#xe9ac;" horiz-adv-x="1192" d="M1166.204 338.025h-51.831c-14.324 0-25.916 11.604-25.916 25.916s11.591 25.916 25.916 25.916h51.831c14.324 0 25.916-11.604 25.916-25.916s-11.591-25.916-25.916-25.916z" />
<glyph unicode="&#xe9ad;" horiz-adv-x="1192" d="M1166.204 130.7h-1140.288c-14.324 0-25.916 11.604-25.916 25.916s11.591 25.916 25.916 25.916h1140.288c14.324 0 25.916-11.604 25.916-25.916s-11.591-25.916-25.916-25.916z" />
<glyph unicode="&#xe9ae;" horiz-adv-x="1192" d="M1010.71-50.71h-829.3c-14.324 0-25.916 11.604-25.916 25.916s11.591 25.916 25.916 25.916h829.3c14.324 0 25.916-11.604 25.916-25.916s-11.591-25.916-25.916-25.916z" />
<glyph unicode="&#xe9af;" horiz-adv-x="1192" d="M879.651 182.531c33.59 52.399 53.312 114.547 53.312 181.409 0 186.066-150.837 336.903-336.903 336.903s-336.903-150.837-336.903-336.903c0-66.863 19.721-129.010 53.312-181.409h567.183z" />
<glyph unicode="&#xe9b0;" glyph-name="phone2" d="M978.24 172.48l-164.992 166.016c-24.96 25.152-65.6 25.152-90.624 0.128l-146.624-146.624-320 320 146.816 146.816c24.96 24.96 25.024 65.472 0.064 90.496l-165.12 165.376c-25.024 25.024-65.536 25.024-90.56 0l-146.944-146.88-0.256 0.192c0-459.52 372.48-832 832-832l146.112 146.112c24.96 24.96 25.024 65.344 0.128 90.368z" />
<glyph unicode="&#xe9b1;" glyph-name="ticket-small" horiz-adv-x="1339" d="M1177.958 451.58c0-45.488 36.861-82.35 82.35-82.35h78.769v-426.070h-1339.077v426.070h78.769c45.488 0 82.35 36.861 82.35 82.35s-36.861 82.35-82.35 82.35h-78.769v426.070h1339.077v-426.070h-78.769c-45.488 0-82.35-36.861-82.35-82.35zM1020.42 451.58c0 104.902 67.321 194.069 161.119 226.658v124.223h-1024v-124.223c93.798-32.59 161.119-121.757 161.119-226.658s-67.321-194.069-161.119-226.658v-124.223h1024v124.223c-93.798 32.59-161.119 121.757-161.119 226.658zM375.944 480.224v157.538h587.189v-157.538zM375.944 265.399v157.538h587.189v-157.538z" />
<glyph unicode="&#xe9b2;" glyph-name="send" d="M1005.248 941.248c-17.472 17.408-43.52 23.36-66.752 14.976l-896-320c-24.128-8.576-40.832-30.784-42.368-56.32-1.536-25.6 12.288-49.6 35.264-61.12l293.504-146.688 375.104 267.904-267.968-375.168 146.688-293.504c10.944-21.696 33.152-35.328 57.28-35.328 1.344 0 2.624 0.064 3.904 0.128 25.6 1.536 47.808 18.176 56.448 42.368l320 896c8.256 23.232 2.368 49.28-15.104 66.752z" />
<glyph unicode="&#xe9b3;" glyph-name="profile" d="M512-64c-282.77 0-512 229.23-512 512s229.23 512 512 512c282.77 0 512-229.23 512-512s-229.23-512-512-512zM496 436.571c65.371 0 118.857 53.486 118.857 118.857v29.714c0 65.371-53.486 118.857-118.857 118.857s-118.857-53.486-118.857-118.857v-29.714c0-65.371 53.486-118.857 118.857-118.857zM555.429 377.143h-118.857c-83.2 0-148.571-65.371-148.571-148.571h416c0 83.2-65.371 148.571-148.571 148.571z" />
<glyph unicode="&#xe9b4;" glyph-name="logout" d="M768 704l256-256-256-256v192h-384v128h384zM64-64h576c38.4 0 64 25.6 64 64v192h-128v-128h-448v768h448v-128h128v192c0 38.4-25.6 64-64 64h-576c-38.4 0-64-25.6-64-64v-896c0-38.4 25.6-64 64-64z" />
<glyph unicode="&#xe9b5;" glyph-name="person" horiz-adv-x="904" d="M729.987 358.711c-74.928 24.804-119.395 52.069-138.305 74.159 70.992 45 118.233 122.82 118.233 211.559v63.114c0 139.23-115.781 252.457-258.151 252.457s-258.151-113.227-258.151-252.457v-63.114c0-88.739 47.242-166.558 118.233-211.559-18.845-22.090-63.312-49.355-138.24-74.159-103.841-34.271-173.607-128.942-173.607-235.605v-172.933h903.529v172.933c0 106.663-69.765 201.334-173.542 235.605zM322.689 707.543c0 69.615 57.89 126.228 129.076 126.228s129.076-56.613 129.076-126.228v-63.114c0-69.615-57.89-126.228-129.076-126.228s-129.076 56.613-129.076 126.228v63.114zM774.454 76.401h-645.378v46.704c0 52.448 34.463 99.026 85.835 116.004 119.072 39.383 193.613 90.632 222.785 152.863h28.138c29.171-62.231 103.712-113.479 222.849-152.863 51.308-16.915 85.771-63.556 85.771-116.004v-46.704z" />
<glyph unicode="&#xe9b6;" glyph-name="pencil" d="M748.8 940.8c-25.6 25.6-64 25.6-89.6 0l-640-640c-12.8-12.8-19.2-25.6-19.2-44.8v-256c0-38.4 25.6-64 64-64h256c19.2 0 32 6.4 44.8 19.2l640 640c25.6 25.6 25.6 64 0 89.6l-256 256zM294.4 64h-166.4v166.4l384 384 166.4-166.4-384-384zM768 537.6l-166.4 166.4 102.4 102.4 166.4-166.4-102.4-102.4z" />
<glyph unicode="&#xe9b7;" glyph-name="folder" horiz-adv-x="896" d="M896 0v640l-320 320h-512c-38.4 0-64-25.6-64-64v-896c0-38.4 25.6-64 64-64h768c38.4 0 64 25.6 64 64zM128 832h384v-256h256v-512h-640v768z" />
<glyph unicode="&#xe9b8;" glyph-name="risk2" d="M903.529 719.059c-105.412 0-273.769 84.811-385.506 168.659-21.384 16.143-50.899 16.143-72.282 0-111.736-83.848-280.094-168.659-385.506-168.659-33.25 0-60.235-26.925-60.235-60.235 0-336.354 162.696-591.33 458.15-717.944 7.59-3.253 15.661-4.879 23.733-4.879s16.143 1.626 23.733 4.879c295.454 126.615 458.15 381.591 458.15 717.944 0 33.31-26.985 60.235-60.235 60.235zM481.882 62.253v355.629h-324.307c-19.155 57.344-31.383 119.326-35.479 186.308 116.134 19.576 253.53 88.064 359.785 161.25v-347.558h324.307c-52.887-158.66-162.033-279.672-324.307-355.629z" />
<glyph unicode="&#xe9b9;" glyph-name="insurance" d="M832-64h-768c-38.4 0-64 25.6-64 64v896c0 38.4 25.6 64 64 64h768v-128h-704v-768h640v64h128v-128c0-38.4-25.6-64-64-64zM1024 576c0 108.8-83.2 192-192 192s-192-83.2-192-192c0-57.6 25.6-108.8 64-140.8v-243.2l128 128 128-128v243.2c38.4 32 64 83.2 64 140.8zM256 640h256v-128h-256v128zM256 384h320v-128h-320v128z" />
<glyph unicode="&#xe9ba;" glyph-name="todo" d="M403.2 211.2l-128 128c-25.6 25.6-25.6 64 0 89.6s64 25.6 89.6 0l83.2-83.2 211.2 211.2c25.6 25.6 64 25.6 89.6 0s25.6-64 0-89.6l-256-256c-25.6-25.6-57.6-32-89.6 0zM960 896h-192v-128h128v-704h-768v704h128v128h-192c-38.4 0-64-25.6-64-64v-832c0-38.4 25.6-64 64-64h896c38.4 0 64 25.6 64 64v832c0 38.4-25.6 64-64 64zM320 960h384v-256h-384v256z" />
<glyph unicode="&#xe9bc;" glyph-name="single-content" d="M896 960h-768c-38.4 0-64-25.6-64-64v-896c0-38.4 25.6-64 64-64h768c38.4 0 64 25.6 64 64v896c0 38.4-25.6 64-64 64zM512 128h-256v128h256v-128zM768 384h-512v128h512v-128zM768 640h-512v128h512v-128z" />
<glyph unicode="&#xe9be;" glyph-name="add" d="M448 832c70.4 0 128-57.6 128-128v-64c0-70.4-57.6-128-128-128s-128 57.6-128 128v64c0 70.4 57.6 128 128 128zM448 960c-140.8 0-256-115.2-256-256v-64c0-140.8 115.2-256 256-256s256 115.2 256 256v64c0 140.8-115.2 256-256 256zM896 320h-128v-128h-128v-128h128v-128h128v128h128v128h-128zM512-64h-512v64c0 179.2 140.8 320 320 320h192v-128h-192c-83.2 0-153.6-51.2-179.2-128h371.2v-128z" />
<glyph unicode="&#xe9bf;" glyph-name="cheque" d="M960 576h-192v-128h128v-384h-768v384h64v128h-128c-38.4 0-64-25.6-64-64v-512c0-38.4 25.6-64 64-64h896c38.4 0 64 25.6 64 64v512c0 38.4-25.6 64-64 64zM320 448h128c19.2 0 32 6.4 44.8 19.2l320 320c25.6 25.6 25.6 64 0 89.6l-64 64c-25.6 25.6-64 25.6-89.6 0l-320-320c-12.8-12.8-19.2-25.6-19.2-44.8v-128zM256 320h512v-128h-512v128z" />
<glyph unicode="&#xe9c0;" glyph-name="paper" d="M256 960v-576h-256v-256c0-108.8 83.2-192 192-192h640c108.8 0 192 83.2 192 192v832h-768zM896 128c0-38.4-25.6-64-64-64h-448v768h512v-704zM512 640h256v-128h-256v128zM512 384h256v-128h-256v128z" />
<glyph unicode="&#xe9c1;" glyph-name="hit-down" d="M989.867-64h-955.733v68.267h955.733zM512 140.8l-273.067 307.2h238.933v512h68.267v-512h238.933z" />
<glyph unicode="&#xe9c2;" glyph-name="warning" horiz-adv-x="853" d="M731.429 594.286l121.905 304.762h-731.429c0 36.571-24.381 60.952-60.952 60.952s-60.952-24.381-60.952-60.952v-853.333c0-36.571 24.381-60.952 60.952-60.952s60.952 24.381 60.952 60.952v243.81h731.429l-121.905 304.762z" />
<glyph unicode="&#xe9c3;" glyph-name="info" d="M512 960c-281.6 0-512-230.4-512-512s230.4-512 512-512c281.6 0 512 230.4 512 512s-230.4 512-512 512zM576 192h-128v320h128v-320zM512 576c-38.4 0-64 25.6-64 64s25.6 64 64 64c38.4 0 64-25.6 64-64s-25.6-64-64-64z" />
<glyph unicode="&#xe9c4;" glyph-name="success" d="M512 960c-281.6 0-512-230.4-512-512s230.4-512 512-512c281.6 0 512 230.4 512 512s-230.4 512-512 512zM448 230.4l-217.6 217.6 89.6 89.6 128-128 256 256 89.6-89.6-345.6-345.6z" />
<glyph unicode="&#xe9c5;" glyph-name="shape-reverse" d="M120.32 135.68l391.68 390.827 391.68-390.827 120.32 120.32-512 512-512-512z" />
<glyph unicode="&#xe9c6;" glyph-name="shape" d="M120.32 760.32l391.68-390.827 391.68 390.827 120.32-120.32-512-512-512 512z" />
<glyph unicode="&#xe9c7;" glyph-name="mail-small" d="M942.437 844.919l65.602-72.162-496.039-450.944-496.039 450.944 65.602 72.162 430.437-391.307zM97.524 761.224v-626.447h828.952v626.447h-828.952zM1024 857.6v-819.2h-1024v819.2h1024z" />
<glyph unicode="&#xe9c8;" glyph-name="tooth2" d="M45.893 536.796c-1.376 4.856-3.058 10.894-4.98 17.939-5.58 20.458-11.158 42.101-16.374 64.011-3.968 16.667-7.574 32.858-10.732 48.37-8.833 43.379-13.806 79.299-13.806 106.702 0 101.566 82.692 186.182 186.182 186.182 40.236 0 118.274-19.84 204.211-48.508 49.449-14.835 84.599-21.31 121.607-21.31s72.158 6.475 120.263 20.884c87.282 29.094 165.32 48.934 205.555 48.934 103.489 0 186.182-84.616 186.182-186.182 0-27.403-4.974-63.323-13.806-106.702-3.159-15.512-6.764-31.703-10.732-48.37-5.217-21.91-10.795-43.553-16.374-64.011-1.923-7.051-3.606-13.092-4.983-17.95l45.896-465.803c0-73.518-59.268-134.982-134.982-134.982-41.972 0-82.48 23.936-109.976 58.336l-180.813 213.286c-34.128 38.394-59.712 54.196-86.23 54.196-28.16 0-57.767-17.764-85.515-53.373l-184.118-216.921c-4.966-4.966-7.327-7.3-10.477-10.309-30.474-29.115-58.844-45.214-96.908-45.214-72.252 0-134.982 62.73-134.755 139.568l45.666 461.228zM930.909 773.818c0 50.627-41.499 93.091-93.091 93.091-26.479 0-98.827-18.394-177.462-44.582-57.394-17.218-100.918-25.236-148.357-25.236s-90.963 8.018-149.701 25.661c-77.29 25.763-149.638 44.157-176.117 44.157-51.592 0-93.091-42.464-93.091-93.091 0-19.693 4.25-50.39 11.935-88.128 2.943-14.453 6.329-29.66 10.072-45.382 4.965-20.853 10.296-41.538 15.626-61.079 3.187-11.686 5.649-20.339 7.021-25.004l2.558-8.698-0.893-9.022-46.319-465.523c0-20.839 21.052-41.891 41.891-41.891 8.446 0 17.843 5.332 32.6 19.432 2.473 2.363 4.487 4.354 6.369 6.014l180.289 212.585c42.726 54.933 97.483 87.787 157.759 87.787 58.594 0 105.748-29.125 156.521-86.263l182.37-215.133c12.108-15.135 27.825-24.422 38.127-24.422 23.528 0 41.891 19.043 42.117 37.305l-47.439 479.131 2.558 8.698c1.372 4.665 3.834 13.318 7.021 25.004 5.33 19.542 10.661 40.226 15.626 61.079 3.743 15.722 7.13 30.929 10.072 45.382 7.684 37.738 11.935 68.435 11.935 88.128zM363.235 630.431l-45.642 9.128 18.257 91.283 45.642-9.128c43.555-8.711 87.043-13.060 130.508-13.060s86.953 4.349 130.508 13.060l45.642 9.128 18.257-91.283-45.642-9.128c-49.536-9.907-99.139-14.868-148.765-14.868s-99.228 4.96-148.765 14.868z" />
<glyph unicode="&#xe9c9;" glyph-name="hospital" d="M85.333 874.667v-853.333h853.333v853.333h-853.333zM1024 960v-1024h-1024v1024h1024zM640 576h170.667v-256h-170.667v-170.667h-256v170.667h-170.667v256h170.667v170.667h256v-170.667zM725.333 490.667h-170.667v170.667h-85.333v-170.667h-170.667v-85.333h170.667v-170.667h85.333v170.667h170.667v85.333z" />
<glyph unicode="&#xe9ca;" glyph-name="glasses" d="M85.333 213.333h-85.333v533.333c0 96.097 74.569 170.667 170.667 170.667h42.667v-85.333h-42.667c-48.969 0-85.333-36.364-85.333-85.333v-533.333zM1024 213.333h-85.333v533.333c0 48.969-36.364 85.333-85.333 85.333h-42.667v85.333h42.667c96.097 0 170.667-74.569 170.667-170.667v-533.333zM469.333 234.667v-42.667h-85.333v42.667c0 70.497 57.503 128 128 128s128-57.503 128-128v-42.667h-85.333v42.667c0 23.369-19.297 42.667-42.667 42.667s-42.667-19.297-42.667-42.667zM234.667-21.333c-129.603 0-234.667 105.064-234.667 234.667s105.064 234.667 234.667 234.667c129.603 0 234.667-105.064 234.667-234.667s-105.064-234.667-234.667-234.667zM234.667 64c82.475 0 149.333 66.859 149.333 149.333s-66.859 149.333-149.333 149.333c-82.475 0-149.333-66.859-149.333-149.333s66.859-149.333 149.333-149.333zM789.333-21.333c-129.603 0-234.667 105.064-234.667 234.667s105.064 234.667 234.667 234.667c129.603 0 234.667-105.064 234.667-234.667s-105.064-234.667-234.667-234.667zM789.333 64c82.475 0 149.333 66.859 149.333 149.333s-66.859 149.333-149.333 149.333c-82.475 0-149.333-66.859-149.333-149.333s66.859-149.333 149.333-149.333z" />
<glyph unicode="&#xe9cb;" glyph-name="eye-show" d="M512 73.846c230.4 0 409.6 198.4 486.4 313.6 32 44.8 32 102.4 0 147.2-76.8 108.8-256 307.2-486.4 307.2s-409.6-198.4-486.4-313.6c-32-44.8-32-102.4 0-140.8 76.8-115.2 256-313.6 486.4-313.6zM512 649.846c108.8 0 192-83.2 192-192s-83.2-192-192-192c-108.8 0-192 83.2-192 192s83.2 192 192 192z" />
<glyph unicode="&#xe9cc;" glyph-name="eye-hide" d="M934.4 601.6l-524.8-524.8c32-6.4 70.4-12.8 102.4-12.8 230.4 0 409.6 198.4 486.4 313.6 32 44.8 32 102.4 0 147.2-12.8 19.2-38.4 44.8-64 76.8zM915.2 940.8l-172.8-172.8c-70.4 38.4-147.2 64-230.4 64-230.4 0-409.6-198.4-486.4-313.6-32-44.8-32-102.4 0-140.8 32-51.2 89.6-115.2 153.6-172.8l-160-160c-25.6-25.6-25.6-64 0-89.6 12.8-12.8 25.6-19.2 44.8-19.2s32 6.4 44.8 19.2l896 896c25.6 25.6 25.6 64 0 89.6s-64 25.6-89.6 0zM339.2 364.8c-12.8 25.6-19.2 51.2-19.2 83.2 0 108.8 83.2 192 192 192 32 0 57.6-6.4 83.2-19.2l-256-256z" />
<glyph unicode="&#xe9cd;" glyph-name="search" d="M808.497 240.629c57.295 76.393 89.126 165.519 89.126 267.377 0 248.279-197.35 451.994-445.628 451.994s-451.994-203.716-451.994-451.994c0-248.279 203.716-451.994 451.994-451.994 101.858 0 197.35 31.831 267.377 89.126l190.984-190.984c12.732-12.732 31.831-19.098 44.563-19.098s31.831 6.366 44.563 19.098c25.464 25.464 25.464 63.661 0 89.126l-190.984 197.35zM451.994 189.7c-178.251 0-324.672 140.055-324.672 318.306s146.421 324.672 324.672 324.672c178.251 0 324.672-146.421 324.672-324.672s-146.421-318.306-324.672-318.306v0z" />
<glyph unicode="&#xe9ce;" glyph-name="mail" horiz-adv-x="1280" d="M1178.047 944.149l82.002-90.202-620.049-563.681-620.049 563.681 82.002 90.202 538.047-489.133zM121.905 839.529v-783.059h1036.19v783.059h-1036.19zM1280 960v-1024h-1280v1024h1280z" />
<glyph unicode="&#xe9cf;" glyph-name="alert" horiz-adv-x="916" d="M285.043 139.483h101.801v-4.072c0-41.113 30.148-71.261 71.261-71.261s71.261 30.148 71.261 71.261v4.072h101.801v-4.072c0-97.336-75.726-173.062-173.062-173.062s-173.062 75.726-173.062 173.062v4.072zM794.049 501.895c0-42.636 13.987-70.921 48.347-109.863-3.619 4.102 27.253-30.078 35.141-39.767 25.195-30.949 38.673-59.548 38.673-94.693 0-115.316-186.668-173.062-458.105-173.062s-458.105 57.746-458.105 173.062c0 35.145 13.478 63.744 38.673 94.693 7.888 9.69 38.76 43.869 35.141 39.767 34.36 38.941 48.347 67.227 48.347 109.863v122.161c0 186.921 149.022 335.944 335.944 335.944s335.944-149.022 335.944-335.944v-122.161zM692.248 501.895v122.161c0 130.698-103.444 234.143-234.143 234.143s-234.143-103.444-234.143-234.143v-122.161c0-71.721-24.57-121.406-73.814-177.217 1.89 2.142-26.578-29.376-32.528-36.684-11.795-14.488-15.82-23.029-15.82-30.422 0-4.708 22.438-22.278 74.597-38.413 67.67-20.934 165.866-32.848 281.708-32.848s214.038 11.914 281.708 32.848c52.159 16.135 74.597 33.705 74.597 38.413 0 7.393-4.025 15.934-15.82 30.422-5.95 7.308-34.418 38.827-32.528 36.684-49.244 55.81-73.814 105.496-73.814 177.217z" />
<glyph unicode="&#xe9d0;" glyph-name="danger" horiz-adv-x="1205" d="M33.464-43.922h1137.778l-568.889 1003.922-568.889-1003.922zM669.281 89.935h-133.856v133.856h133.856v-133.856zM669.281 290.719h-133.856v267.712h133.856v-267.712z" />
<glyph unicode="&#xe9d1;" d="M289.391 514.783c-36.826 0-66.783 29.956-66.783 66.783s29.956 66.783 66.783 66.783c36.826 0 66.783-29.956 66.783-66.783s-29.956-66.783-66.783-66.783z" />
<glyph unicode="&#xe9d2;" d="M512 158.609c-71.544 0-138.174 38.696-173.848 100.989-6.109 10.674-2.413 24.272 8.261 30.381 10.717 6.13 24.261 2.402 30.391-8.25 27.761-48.478 79.565-78.598 135.196-78.598s107.435 30.12 135.196 78.598c6.152 10.663 19.696 14.359 30.391 8.25 10.674-6.109 14.37-19.706 8.261-30.381-35.674-62.293-102.304-100.989-173.848-100.989z" />
<glyph unicode="&#xe9d3;" d="M801.391 559.304h-133.565c-12.304 0-22.261 9.967-22.261 22.261s9.957 22.261 22.261 22.261h133.565c12.304 0 22.261-9.967 22.261-22.261s-9.957-22.261-22.261-22.261z" />
<glyph unicode="&#xe9d4;" d="M467.59 648.348h-267.242c-12.31 0-22.261 9.951-22.261 22.261s9.951 22.261 22.261 22.261h267.242c12.31 0 22.261-9.951 22.261-22.261s-9.951-22.261-22.261-22.261z" />
<glyph unicode="&#xe9d5;" d="M441.5 425.739h-241.152c-12.31 0-22.261 9.951-22.261 22.261s9.951 22.261 22.261 22.261h241.152c12.31 0 22.261-9.951 22.261-22.261s-9.951-22.261-22.261-22.261z" />
<glyph unicode="&#xe9d6;" d="M645.565 203.13h-445.217c-12.31 0-22.261 9.951-22.261 22.261s9.951 22.261 22.261 22.261h445.217c12.31 0 22.261-9.951 22.261-22.261s-9.951-22.261-22.261-22.261z" />
<glyph unicode="&#xe9d7;" d="M1001.739 203.13c-5.699 0-11.398 2.182-15.738 6.522l-178.087 178.087c-8.704 8.704-8.704 22.773 0 31.477s22.773 8.704 31.477 0l178.087-178.087c8.704-8.704 8.704-22.773 0-31.477-4.341-4.341-10.040-6.522-15.738-6.522z" />
<glyph unicode="&#xe9d8;" d="M645.565 292.174c-135.012 0-244.87 109.857-244.87 244.87s109.857 244.87 244.87 244.87c135.012 0 244.87-109.857 244.87-244.87s-109.857-244.87-244.87-244.87z" />
<glyph unicode="&#xe9d9;" d="M645.565 737.391c-103.112 0-187.949-77.935-199.034-178.087h154.513c24.576 0 44.522-19.946 44.522-44.522s-19.946-44.522-44.522-44.522h-144.184c27.537-77.757 101.51-133.565 188.705-133.565 110.659 0 200.348 89.689 200.348 200.348s-89.689 200.348-200.348 200.348z" />
<glyph unicode="&#xe9da;" d="M645.565 514.783c0 24.576-19.946 44.522-44.522 44.522h-154.513c-0.824-7.324-1.313-14.737-1.313-22.261 0-23.463 4.23-45.857 11.642-66.783h144.184c24.576 0 44.522 19.946 44.522 44.522z" />
<glyph unicode="&#xe9db;" horiz-adv-x="736" d="M328.892 957.968c-167.655-17.39-304.649-150.761-325.847-317.977-20.856-164.515 67.089-317.154 213.426-383.203v-119.376h303.059v119.376c131.986 59.572 216.471 189.581 216.471 335.212 0 215.814-186.726 388.827-407.108 365.968z" />
<glyph unicode="&#xe9dc;" horiz-adv-x="736" d="M216.471 159.059v-86.588c0-23.91 19.384-43.294 43.294-43.294h216.471c23.912 0 43.294 19.384 43.294 43.294v86.588h-303.059z" />
<glyph unicode="&#xe9dd;" horiz-adv-x="736" d="M454.588 483.765c-5.539 0-11.077 2.114-15.305 6.342l-71.283 71.283-71.283-71.283c-8.456-8.456-22.154-8.456-30.61 0l-86.588 86.588c-8.456 8.456-8.456 22.154 0 30.61s22.154 8.456 30.61 0l71.283-71.283 71.283 71.283c8.456 8.456 22.154 8.456 30.61 0l71.283-71.283 71.283 71.283c8.456 8.456 22.154 8.456 30.61 0s8.456-22.154 0-30.61l-86.588-86.588c-4.228-4.228-9.767-6.342-15.305-6.342z" />
<glyph unicode="&#xe9de;" horiz-adv-x="939" d="M853.333 362.667c0-212.077-171.923-384-384-384s-384 171.923-384 384c0 212.077 171.923 384 384 384s384-171.923 384-384z" />
<glyph unicode="&#xe9df;" horiz-adv-x="939" d="M469.333-64c-235.26 0-426.667 191.406-426.667 426.667s191.406 426.667 426.667 426.667c235.26 0 426.667-191.406 426.667-426.667s-191.406-426.667-426.667-426.667zM469.333 704c-188.208 0-341.333-153.125-341.333-341.333s153.125-341.333 341.333-341.333c188.208 0 341.333 153.125 341.333 341.333s-153.125 341.333-341.333 341.333z" />
<glyph unicode="&#xe9e0;" horiz-adv-x="939" d="M469.333 746.667c-58.813 0-106.667 47.854-106.667 106.667s47.854 106.667 106.667 106.667c58.813 0 106.667-47.854 106.667-106.667s-47.854-106.667-106.667-106.667zM469.333 917.333c-35.292 0-64-28.708-64-64s28.708-64 64-64c35.292 0 64 28.708 64 64s-28.708 64-64 64z" />
<glyph unicode="&#xe9e1;" horiz-adv-x="939" d="M439.164 392.836c16.662 16.662 211.189 150.849 211.189 150.849s-134.187-194.527-150.849-211.189c-16.662-16.662-43.677-16.662-60.34 0s-16.662 43.677 0 60.34z" />
<glyph unicode="&#xe9e2;" horiz-adv-x="939" d="M469.333 576c-11.792 0-21.333 9.552-21.333 21.333v42.667c0 11.781 9.542 21.333 21.333 21.333s21.333-9.552 21.333-21.333v-42.667c0-11.781-9.542-21.333-21.333-21.333z" />
<glyph unicode="&#xe9e3;" horiz-adv-x="939" d="M682.667 362.667c0 11.792 9.552 21.333 21.333 21.333h42.667c11.781 0 21.333-9.542 21.333-21.333s-9.552-21.333-21.333-21.333h-42.667c-11.781 0-21.333 9.542-21.333 21.333z" />
<glyph unicode="&#xe9e4;" horiz-adv-x="939" d="M469.333 149.333c11.792 0 21.333-9.552 21.333-21.333v-42.667c0-11.781-9.542-21.333-21.333-21.333s-21.333 9.552-21.333 21.333v42.667c0 11.781 9.542 21.333 21.333 21.333z" />
<glyph unicode="&#xe9e5;" horiz-adv-x="939" d="M256 362.667c0-11.792-9.552-21.333-21.333-21.333h-42.667c-11.781 0-21.333 9.542-21.333 21.333s9.552 21.333 21.333 21.333h42.667c11.781 0 21.333-9.542 21.333-21.333z" />
<glyph unicode="&#xe9e6;" horiz-adv-x="939" d="M856.993 642.144l-150.849 150.849c-8.331 8.331-8.331 21.839 0 30.17l45.255 45.255c8.331 8.331 21.839 8.331 30.17 0l150.849-150.849c8.331-8.331 8.331-21.839 0-30.17l-45.255-45.255c-8.331-8.331-21.839-8.331-30.17 0z" />
<glyph unicode="&#xe9e7;" horiz-adv-x="939" d="M213.333 629.333c-8.188 0-16.375 3.125-22.625 9.375l-85.333 85.333c-12.5 12.49-12.5 32.76 0 45.25 12.5 12.5 32.75 12.5 45.25 0l85.333-85.333c12.5-12.49 12.5-32.76 0-45.25-6.25-6.25-14.437-9.375-22.625-9.375z" />
<glyph unicode="&#xe9e8;" horiz-adv-x="939" d="M81.673 642.144l150.849 150.849c8.331 8.331 8.331 21.839 0 30.17l-45.255 45.255c-8.331 8.331-21.839 8.331-30.17 0l-150.849-150.849c-8.331-8.331-8.331-21.839 0-30.17l45.255-45.255c8.331-8.331 21.839-8.331 30.17 0z" />
</font>
</defs>
</svg>
