<?xml version="1.0" standalone="no"?>
<!DOCTYPE svg PUBLIC "-//W3C//DTD SVG 20010904//EN"
 "http://www.w3.org/TR/2001/REC-SVG-20010904/DTD/svg10.dtd">
<svg version="1.0" xmlns="http://www.w3.org/2000/svg"
 width="384.000000pt" height="384.000000pt" viewBox="0 0 384.000000 384.000000"
 preserveAspectRatio="xMidYMid meet">
<metadata>
Created by potrace 1.11, written by Peter Selinger 2001-2013
</metadata>
<g transform="translate(0.000000,384.000000) scale(0.100000,-0.100000)"
fill="#000000" stroke="none">
<path d="M1716 3829 c-655 -69 -1236 -481 -1525 -1079 -460 -953 -58 -2098
899 -2559 953 -460 2098 -58 2559 899 460 953 58 2098 -899 2559 -320 154
-681 217 -1034 180z m-346 -1319 c393 -21 633 -53 892 -119 422 -108 639 -246
604 -384 -35 -142 -285 -248 -711 -302 l-50 -7 63 57 c126 114 127 185 5 294
-108 96 -304 175 -600 240 -206 46 -297 60 -528 81 -305 29 -538 37 -725 28
-91 -5 -174 -7 -185 -5 -57 8 348 80 580 102 269 25 396 28 655 15z m253 -455
c-56 -47 -103 -121 -103 -160 0 -69 105 -177 240 -245 133 -67 477 -153 744
-185 315 -38 828 -51 1049 -26 66 7 121 10 124 8 7 -7 -233 -63 -372 -86 -329
-56 -615 -74 -967 -61 -377 14 -591 39 -842 99 -509 123 -700 293 -517 464 86
81 216 134 452 186 74 16 143 32 154 34 11 3 33 5 49 6 l30 1 -41 -35z m334
14 c64 -24 123 -109 123 -179 0 -43 -29 -107 -61 -137 -32 -29 -91 -53 -131
-53 -94 1 -188 95 -188 190 0 64 57 151 115 176 37 16 104 18 142 3z"/>
</g>
</svg>
