<?xml version="1.0" encoding="UTF-8"?>
<svg width="36px" height="39px" viewBox="0 0 36 39" version="1.1" xmlns="http://www.w3.org/2000/svg" xmlns:xlink="http://www.w3.org/1999/xlink">
    <!-- Generator: Sketch 50.2 (55047) - http://www.bohemiancoding.com/sketch -->
    <title>employee</title>
    <desc>Created with Sketch.</desc>
    <defs></defs>
    <g id="Page-1" stroke="none" stroke-width="1" fill="none" fill-rule="evenodd">
        <g id="01gsw" transform="translate(-461.000000, -708.000000)">
            <g id="Panel-1" transform="translate(431.000000, 317.000000)">
                <g id="Group-10" transform="translate(1.000000, 367.000000)">
                    <g id="employee" transform="translate(29.000000, 24.000000)">
                        <path d="M9.7481775,22.5 C7.2639,22.5 5.25,20.4939675 5.25,18 L5.25,9.75 C5.25,4.365 9.615,0 15,0 C20.385,0 24.75,4.365 24.75,9.75 L24.75,18 C24.75,20.4866625 22.7366025,22.5 20.2518225,22.5 L9.7481775,22.5 Z" id="Shape" fill="#C6A279"></path>
                        <rect id="Rectangle-path" fill="#EAC3A2" x="10.5" y="16.5" width="9" height="16.5"></rect>
                        <path d="M27.51225,28.0065 L19.5,24 L15,33 L10.5135,24 L2.48775,28.0065 C0.963,28.7685 0,30.327 0,32.031 L0,33.7458 C0,34.162335 0.336915,34.5 0.7565775,34.5 L29.2434075,34.5 C29.66127,34.5 30,34.1670225 30,33.7458 L30,32.031 C30,30.327 29.037,28.7685 27.51225,28.0065 Z" id="Shape" fill="#444444"></path>
                        <polygon id="Shape" fill="#FFFFFF" points="10.5135 24 7.5 28.5 15 33"></polygon>
                        <polygon id="Shape" fill="#FFFFFF" points="19.49325 24 22.5 28.5 15.00675 33"></polygon>
                        <path d="M6.75,12.6546 L6.75,14.1546 C6.75,18.70335 10.45125,22.4046 15,22.4046 C19.54875,22.4046 23.25,18.70335 23.25,14.1546 L23.25,12.6546 C23.25,11.4119625 22.2426375,10.4046 21,10.4046 C18.3878025,10.4046 16.1221725,8.92077 15,6.75 C13.8778275,8.92077 11.6121975,10.4046 9,10.4046 C7.7573625,10.4046 6.75,11.4119625 6.75,12.6546 Z" id="Shape" fill="#F1D9C5"></path>
                        <g id="Group-17" transform="translate(20.000000, 23.000000)">
                            <circle id="Oval" fill="#2ABB91" fill-rule="nonzero" cx="8" cy="8" r="8"></circle>
                            <path d="M11,7 L9,7 L9,5 C9,4.4476929 8.5523071,4 8,4 C7.4476929,4 7,4.4476929 7,5 L7,7 L5,7 C4.4476929,7 4,7.4476929 4,8 C4,8.5522461 4.4476929,9 5,9 L7,9 L7,11 C7,11.5522461 7.4476929,12 8,12 C8.5523071,12 9,11.5522461 9,11 L9,9 L11,9 C11.5523071,9 12,8.5522461 12,8 C12,7.4476929 11.5523071,7 11,7 Z" id="Path" fill="#FFFFFF"></path>
                        </g>
                    </g>
                </g>
            </g>
        </g>
    </g>
</svg>