<?xml version="1.0" encoding="UTF-8"?>
<svg width="41px" height="37px" viewBox="0 0 41 37" version="1.1" xmlns="http://www.w3.org/2000/svg" xmlns:xlink="http://www.w3.org/1999/xlink">
    <!-- Generator: Sketch 50.2 (55047) - http://www.bohemiancoding.com/sketch -->
    <title>client</title>
    <desc>Created with Sketch.</desc>
    <defs></defs>
    <g id="Page-1" stroke="none" stroke-width="1" fill="none" fill-rule="evenodd">
        <g id="01gsw" transform="translate(-461.000000, -508.000000)">
            <g id="Panel-1" transform="translate(431.000000, 317.000000)">
                <g id="Group-7" transform="translate(1.000000, 167.000000)">
                    <g id="client" transform="translate(29.000000, 24.000000)">
                        <g id="parent">
                            <rect id="Rectangle-path" fill="#EAC3A2" x="17.7727273" y="13.1363636" width="7.72727273" height="9.27272727"></rect>
                            <path d="M10.0398833,35.5454545 C9.61619713,35.5454545 9.27272727,35.2044239 9.27272727,34.7670765 L9.27272727,25.1191781 C9.27272727,23.835823 10.1985548,22.3325371 11.3520597,21.755789 L17.7727273,18.5454545 C17.7727273,18.5454545 19.3181818,20.0909091 21.6363636,20.0909091 C23.9545455,20.0909091 25.5,18.5454545 25.5,18.5454545 L31.920669,21.7557891 C33.0690479,22.3299785 34,23.8388371 34,25.1191781 L34,34.7670765 C34,35.1969632 33.6504505,35.5454545 33.2328439,35.5454545 L10.0398833,35.5454545 Z" id="Shape" fill="#949AA6"></path>
                            <path d="M27.8181818,10.8181818 C27.8181818,14.232307 25.0504903,17 21.6363636,17 C18.2222369,17 15.4545455,14.232307 15.4545455,10.8181818 L15.4545455,8.5 C15.4545455,5.08587331 18.2222385,2.31818182 21.6363636,2.31818182 C25.0504888,2.31818182 27.8181818,5.08587331 27.8181818,8.5 L27.8181818,10.8181818 Z" id="Shape" fill="#EAD8C5"></path>
                            <path d="M27.8181818,9.27272727 L27.8181818,5.40904377 C27.8181818,3.70881914 26.4339116,2.31818182 24.7263236,2.31818182 L24.3409091,2.31818182 L23.5295844,0.695532359 C23.3333488,0.303064023 22.8625506,0.127710027 22.4687071,0.285245009 L17.6070242,2.22992114 C16.4175879,2.70568917 15.4545455,4.1293704 15.4545455,5.41038198 L15.4545455,9.27272727 C15.4545455,7.56566393 16.8383912,6.18181818 18.5454545,6.18181818 L24.7272727,6.18181818 C26.4343361,6.18181818 27.8181818,7.56566393 27.8181818,9.27272727 Z" id="Shape" fill="#444444"></path>
                            <path d="M4.63636364,16.2272727 C4.63636364,11.9596159 8.09597955,8.5 12.3636364,8.5 C16.6312932,8.5 20.0909091,11.9596159 20.0909091,16.2272727 L20.0909091,22.404068 C20.0909091,24.1139052 18.7058179,25.5 17.0005955,25.5 L7.72667804,25.5 C6.0199441,25.5 4.63636364,24.1137666 4.63636364,22.404068 L4.63636364,16.2272727 Z" id="Shape" fill="#87613E"></path>
                            <rect id="Rectangle-path" fill="#EAC3A2" x="8.5" y="20.8636364" width="7.72727273" height="8.81916959"></rect>
                            <path d="M0.767153127,35.5454545 C0.343466223,35.5454545 0,35.2002234 0,34.7716602 L0,32.8429607 C0,31.5615305 0.925830045,30.0598113 2.0793339,29.4830603 L8.5,26.2727273 C8.5,26.2727273 10.0454545,27.8181818 12.3636364,27.8181818 C14.6818182,27.8181818 16.2272727,26.2727273 16.2272727,26.2727273 L22.6479403,29.4830603 C23.7963236,30.0572527 24.7272727,31.5634407 24.7272727,32.8429607 L24.7272727,34.7716602 C24.7272727,35.1990149 24.3777202,35.5454545 23.9601167,35.5454545 L0.767153127,35.5454545 Z" id="Shape" fill="#606060"></path>
                            <path d="M6.18181818,17.4911138 L6.18181818,18.6150856 C6.18181818,22.0235158 8.95520614,24.7969038 12.3636364,24.7969038 C15.7720666,24.7969038 18.5454545,22.0235158 18.5454545,18.6150856 L18.5454545,17.4911138 C18.5454545,16.5599938 17.7906317,15.8051621 16.8595028,15.8051621 C14.9021529,15.8051621 13.2044943,14.6933158 12.3636364,13.0667326 C11.5227784,14.6933158 9.82511909,15.8051621 7.86776992,15.8051621 C6.93664391,15.8051621 6.18181818,16.5599937 6.18181818,17.4911138 Z" id="Shape" fill="#EAD8C5"></path>
                        </g>
                        <g id="Add" transform="translate(25.000000, 21.000000)" fill-rule="nonzero">
                            <circle id="Oval" fill="#2ABB91" cx="8" cy="8" r="8"></circle>
                            <path d="M11,7 L9,7 L9,5 C9,4.4476929 8.5523071,4 8,4 C7.4476929,4 7,4.4476929 7,5 L7,7 L5,7 C4.4476929,7 4,7.4476929 4,8 C4,8.5522461 4.4476929,9 5,9 L7,9 L7,11 C7,11.5522461 7.4476929,12 8,12 C8.5523071,12 9,11.5522461 9,11 L9,9 L11,9 C11.5523071,9 12,8.5522461 12,8 C12,7.4476929 11.5523071,7 11,7 Z" id="Shape" fill="#FFFFFF"></path>
                        </g>
                    </g>
                </g>
            </g>
        </g>
    </g>
</svg>