<?xml version="1.0" encoding="UTF-8"?>
<svg width="42px" height="46px" viewBox="0 0 42 46" version="1.1" xmlns="http://www.w3.org/2000/svg" xmlns:xlink="http://www.w3.org/1999/xlink">
    <!-- Generator: Sketch 50.2 (55047) - http://www.bohemiancoding.com/sketch -->
    <title>upload</title>
    <desc>Created with Sketch.</desc>
    <defs></defs>
    <g id="Page-1" stroke="none" stroke-width="1" fill="none" fill-rule="evenodd">
        <g id="01gsw" transform="translate(-470.000000, -1033.000000)" fill-rule="nonzero">
            <g id="upload" transform="translate(470.000000, 1033.000000)">
                <path d="M41,46 L1,46 C0.692,46 0.401,45.858 0.212,45.615 C0.023,45.372 -0.045,45.056 0.03,44.757 L6.03,20.757 C6.141,20.312 6.541,20 7,20 L35,20 C35.459,20 35.859,20.312 35.97,20.757 L41.97,44.757 C42.045,45.056 41.977,45.372 41.788,45.615 C41.599,45.858 41.308,46 41,46 Z" id="Shape" fill="#BFDEE0"></path>
                <path d="M21,0 C20.999,0 20.998,0 20.997,0 C20.863,0 20.735,0.027 20.619,0.075 C20.5,0.124 20.389,0.197 20.293,0.293 L12.293,8.293 C11.902,8.684 11.902,9.316 12.293,9.707 C12.684,10.098 13.316,10.098 13.707,9.707 L20,3.414 L20,33 C20,33.552 20.448,34 21,34 C21.552,34 22,33.552 22,33 L22,3.414 L28.293,9.707 C28.684,10.098 29.316,10.098 29.707,9.707 C30.098,9.316 30.098,8.684 29.707,8.293 L21.707,0.293 C21.611,0.197 21.499,0.124 21.381,0.075 C21.265,0.027 21.137,0 21.003,0 C21.002,0 21.001,0 21,0 Z" id="Shape" fill="#335262"></path>
            </g>
        </g>
    </g>
</svg>