<?xml version="1.0" encoding="UTF-8"?>
<svg width="36px" height="36px" viewBox="0 0 36 36" version="1.1" xmlns="http://www.w3.org/2000/svg" xmlns:xlink="http://www.w3.org/1999/xlink">
    <!-- Generator: Sketch 50.2 (55047) - http://www.bohemiancoding.com/sketch -->
    <title>benefits</title>
    <desc>Created with Sketch.</desc>
    <defs></defs>
    <g id="Page-1" stroke="none" stroke-width="1" fill="none" fill-rule="evenodd">
        <g id="01gsw" transform="translate(-461.000000, -810.000000)" fill-rule="nonzero">
            <g id="Panel-1" transform="translate(431.000000, 317.000000)">
                <g id="Group-13" transform="translate(1.000000, 467.000000)">
                    <g id="benefits" transform="translate(29.000000, 26.000000)">
                        <path d="M28.173913,1.56521739 L1.56521739,1.56521739 C0.700771696,1.56521739 0,2.26598909 0,3.13043478 L0,33.6521739 C0,34.5166196 0.700771696,35.2173913 1.56521739,35.2173913 L28.173913,35.2173913 C29.0383587,35.2173913 29.7391304,34.5166196 29.7391304,33.6521739 L29.7391304,3.13043478 C29.7391304,2.26598909 29.0383587,1.56521739 28.173913,1.56521739 Z" id="Shape" fill="#A67C52"></path>
                        <path d="M25.0434783,31.3043478 L4.69565217,31.3043478 C4.26342933,31.3043478 3.91304348,30.953962 3.91304348,30.5217391 L3.91304348,6.26086957 C3.91304348,5.82864672 4.26342933,5.47826087 4.69565217,5.47826087 L25.0434783,5.47826087 C25.4757011,5.47826087 25.826087,5.82864672 25.826087,6.26086957 L25.826087,30.5217391 C25.826087,30.953962 25.4757011,31.3043478 25.0434783,31.3043478 Z" id="Shape" fill="#E6E6E6"></path>
                        <path d="M20.3478261,18 L9.39130435,18 C8.9590815,18 8.60869565,17.6496142 8.60869565,17.2173913 C8.60869565,16.7851685 8.9590815,16.4347826 9.39130435,16.4347826 L20.3478261,16.4347826 C20.7800489,16.4347826 21.1304348,16.7851685 21.1304348,17.2173913 C21.1304348,17.6496142 20.7800489,18 20.3478261,18 Z" id="Shape" fill="#B3B3B3"></path>
                        <path d="M20.3478261,13.3043478 L9.39130435,13.3043478 C8.9590815,13.3043478 8.60869565,12.953962 8.60869565,12.5217391 C8.60869565,12.0895163 8.9590815,11.7391304 9.39130435,11.7391304 L20.3478261,11.7391304 C20.7800489,11.7391304 21.1304348,12.0895163 21.1304348,12.5217391 C21.1304348,12.953962 20.7800489,13.3043478 20.3478261,13.3043478 Z" id="Shape" fill="#B3B3B3"></path>
                        <path d="M17.2173913,22.6956522 L9.39130435,22.6956522 C8.9590815,22.6956522 8.60869565,22.3452663 8.60869565,21.9130435 C8.60869565,21.4808206 8.9590815,21.1304348 9.39130435,21.1304348 L17.2173913,21.1304348 C17.6496142,21.1304348 18,21.4808206 18,21.9130435 C18,22.3452663 17.6496142,22.6956522 17.2173913,22.6956522 Z" id="Shape" fill="#B3B3B3"></path>
                        <path d="M13.3043478,27.3913043 L9.39130435,27.3913043 C8.9590815,27.3913043 8.60869565,27.0409185 8.60869565,26.6086957 C8.60869565,26.1764728 8.9590815,25.826087 9.39130435,25.826087 L13.3043478,25.826087 C13.7365707,25.826087 14.0869565,26.1764728 14.0869565,26.6086957 C14.0869565,27.0409185 13.7365707,27.3913043 13.3043478,27.3913043 Z" id="Shape" fill="#B3B3B3"></path>
                        <path d="M18,3.13043478 C18,1.40154339 16.5984566,1.73774039e-16 14.8695652,0 C13.1406738,-8.68870193e-17 11.7391304,1.40154339 11.7391304,3.13043478 L9.39130435,3.13043478 C8.9590815,3.13043478 8.60869565,3.48082063 8.60869565,3.91304348 L8.60869565,7.04347826 C8.60869565,7.47570111 8.9590815,7.82608696 9.39130435,7.82608696 L20.3478261,7.82608696 C20.7800489,7.82608696 21.1304348,7.47570111 21.1304348,7.04347826 L21.1304348,3.91304348 C21.1304348,3.48082063 20.7800489,3.13043478 20.3478261,3.13043478 L18,3.13043478 Z" id="Shape" fill="#EFD358"></path>
                        <circle id="Oval" fill="#B29930" cx="14.8695652" cy="3.13043478" r="1"></circle>
                        <path d="M27.3913043,35.3222609 L29.088,35.8513043 C30.6626759,36.3711063 32.3695104,35.5727759 32.979913,34.0309565 L34.9364348,28.5526957 C36.306,24.7093043 32.5103478,21.0028696 28.3484348,22.1157391 L27.3913043,22.3685217 L26.438087,22.1133913 C22.2738261,21.0005217 18.4805217,24.7069565 19.850087,28.5503478 L21.8066087,34.0286087 C22.4170113,35.570428 24.1238458,36.3687584 25.6985217,35.8489565 L27.3913043,35.3222609 Z" id="Shape" fill="#E86C60"></path>
                        <path d="M32.0869565,15.6521739 L32.0869565,16.4347826 C32.0869565,18.5958968 30.3350273,20.3478261 28.173913,20.3478261 L28.173913,19.5652174 C28.173913,17.4041032 29.9258423,15.6521739 32.0869565,15.6521739 Z" id="Shape" fill="#72C472"></path>
                    </g>
                </g>
            </g>
        </g>
    </g>
</svg>