<?xml version="1.0" encoding="UTF-8"?>
<svg width="36px" height="35px" viewBox="0 0 36 35" version="1.1" xmlns="http://www.w3.org/2000/svg" xmlns:xlink="http://www.w3.org/1999/xlink">
    <!-- Generator: Sketch 50.2 (55047) - http://www.bohemiancoding.com/sketch -->
    <title>handshake</title>
    <desc>Created with Sketch.</desc>
    <defs></defs>
    <g id="Page-1" stroke="none" stroke-width="1" fill="none" fill-rule="evenodd">
        <g id="01gsw" transform="translate(-462.000000, -613.000000)" fill-rule="nonzero">
            <g id="Panel-1" transform="translate(431.000000, 317.000000)">
                <g id="Group-12" transform="translate(1.000000, 267.000000)">
                    <g id="handshake" transform="translate(30.000000, 29.000000)">
                        <path d="M33.476087,18.3349565 L18.7927826,3.6 C17.4904978,2.29772039 15.7244007,1.56583447 13.8826957,1.56521739 L11.2805217,1.56521739 L9.9446087,0.229304348 C9.63900012,-0.0762119517 9.14360858,-0.0762119517 8.838,0.229304348 L0.229304348,8.838 C-0.0762119517,9.14360858 -0.0762119517,9.63900012 0.229304348,9.9446087 L1.56521739,11.2805217 L1.56521739,13.9891304 C1.56521739,16.8589565 3.9693913,19.1817391 3.9693913,19.1817391 L16.8613043,33.2561739 C17.776545,34.1790121 19.1519678,34.4711227 20.3632736,33.9999178 C21.5745794,33.5287128 22.3910478,32.383944 22.442087,31.0852174 C23.4065631,31.8470636 24.7673361,31.8492052 25.7342055,31.0903987 C26.7010749,30.3315921 27.0224268,29.009306 26.5116522,27.8913913 C27.6704575,28.3151267 28.9692269,28.0473748 29.8659566,27.1998741 C30.7626862,26.3523735 31.1032661,25.0707735 30.7455652,23.889913 C32.1360698,24.0755626 33.4897974,23.3524527 34.1086421,22.0934849 C34.7274868,20.8345171 34.4731816,19.3209797 33.4768696,18.3333913 L33.476087,18.3349565 Z" id="Shape" fill="#A67C52"></path>
                        <rect id="Rectangle-path" fill="#EEBC99" transform="translate(4.607039, 20.864966) rotate(-45.000000) translate(-4.607039, -20.864966) " x="1.4496038" y="18.1023573" width="6.31486957" height="5.52521739" rx="2.7626087"></rect>
                        <rect id="Rectangle-path" fill="#EEBC99" transform="translate(8.190356, 24.448531) rotate(-45.000000) translate(-8.190356, -24.448531) " x="4.82161729" y="21.6906181" width="6.73747826" height="5.51582609" rx="2.75791304"></rect>
                        <rect id="Rectangle-path" fill="#EEBC99" transform="translate(11.634599, 28.170865) rotate(-45.000000) translate(-11.634599, -28.170865) " x="8.45329478" y="25.3875174" width="6.3626087" height="5.56669565" rx="2.78334783"></rect>
                        <rect id="Rectangle-path" fill="#EEBC99" transform="translate(15.109116, 31.585590) rotate(-45.000000) translate(-15.109116, -31.585590) " x="12.130899" y="29.0468078" width="5.95643478" height="5.07756522" rx="2.53878261"></rect>
                        <path d="M35.7706957,8.838 L27.162,0.229304348 C26.8563914,-0.0762119517 26.3609999,-0.0762119517 26.0553913,0.229304348 L24.7194783,1.56521739 L22.1173043,1.56521739 C20.2755993,1.56583447 18.5095022,2.29772039 17.2072174,3.6 L9.86086957,10.9494783 C9.33070928,11.4584694 9.03589957,12.1648788 9.04695652,12.8997391 C9.07591436,13.828692 9.60773875,14.6684076 10.4351789,15.0916506 C11.2626191,15.5148937 12.2547562,15.454698 13.0249565,14.9345217 L18.770087,11.2906957 C19.9859729,12.3569807 21.5528129,12.9366725 23.169913,12.9185217 C24.5146027,12.9272973 25.8307469,12.5307632 26.9467826,11.7806087 L33.0613043,17.9217391 C33.8985017,16.7758246 34.3765352,15.4070962 34.4347826,13.9891304 L34.4347826,11.2805217 L35.7706957,9.9446087 C36.076212,9.63900012 36.076212,9.14360858 35.7706957,8.838 Z" id="Shape" fill="#EEBC99"></path>
                    </g>
                </g>
            </g>
        </g>
    </g>
</svg>