<?xml version="1.0" encoding="UTF-8"?>
<svg width="38px" height="35px" viewBox="0 0 38 35" version="1.1" xmlns="http://www.w3.org/2000/svg" xmlns:xlink="http://www.w3.org/1999/xlink">
    <!-- Generator: Sketch 50.2 (55047) - http://www.bohemiancoding.com/sketch -->
    <title>shoe</title>
    <desc>Created with Sketch.</desc>
    <defs></defs>
    <g id="Page-1" stroke="none" stroke-width="1" fill="none" fill-rule="evenodd">
        <g id="01gsw" transform="translate(-461.000000, -412.000000)" fill-rule="nonzero">
            <g id="Panel-1" transform="translate(431.000000, 317.000000)">
                <g id="Group-3" transform="translate(1.000000, 67.000000)">
                    <g id="shoe" transform="translate(29.000000, 28.000000)">
                        <path d="M29.2916667,23.75 C29.0550929,23.75 28.8231583,23.6440829 28.6693137,23.44771 L19.9609804,12.3639888 C19.8512,12.2244496 19.7916667,12.0524283 19.7916667,11.875 C19.7916667,9.06319 21.6811533,6.56024083 24.3862704,5.78867458 C24.8083871,5.66807208 25.2444212,5.91198458 25.3650317,6.33216958 L30.0531867,22.7410842 C30.1567842,23.1044433 29.9890221,23.4910063 29.6519383,23.6634075 C29.5375187,23.722165 29.4138208,23.75 29.2916667,23.75 Z" id="Shape" fill="#3C9AC7"></path>
                        <path d="M34.858065,24.5656304 L29.9511408,22.3854596 L29.4362408,20.5833333 L26.9166667,20.5833333 C26.4790887,20.5833333 26.125,20.2292446 26.125,19.7916667 C26.125,19.3540887 26.4790887,19 26.9166667,19 L28.9838746,19 L28.5315083,17.4166667 L24.5416667,17.4166667 C24.1040887,17.4166667 23.75,17.0625779 23.75,16.625 C23.75,16.1874221 24.1040887,15.8333333 24.5416667,15.8333333 L28.0790867,15.8333333 L27.6267204,14.25 L22.1666667,14.25 C21.7290887,14.25 21.375,13.8955312 21.375,13.4583333 C21.375,13.0211354 21.7290887,12.6666667 22.1666667,12.6666667 L27.0639958,12.6666667 C26.5072562,11.7069925 25.4810029,11.0833333 24.3333158,11.0833333 L21.8743279,11.0833333 C20.2763646,11.0833333 18.7561825,10.3935542 17.7038833,9.19099667 L15.2294421,6.3632425 C14.5980325,5.64168583 14.25,4.71545958 14.2500079,3.75664833 L14.2500079,2.01217125 C14.2500079,1.42853875 13.9822979,0.848722083 13.4797954,0.551870833 C12.8413717,0.17472875 12.0555475,0.283321667 11.5472025,0.791666667 L3.00276792,9.33610125 C2.69363792,9.64523125 2.69363792,10.1464354 3.00276792,10.4555654 L22.2625296,29.7153271 C23.0050575,30.457855 24.0121367,30.875 25.0622192,30.875 L35.625,30.875 C36.4994512,30.875 37.2083333,30.1661179 37.2083333,29.2916667 L37.2083333,28.1816708 C37.2083333,26.6177808 36.2872371,25.2006183 34.858065,24.5656304 Z" id="Shape" fill="#49B7EC"></path>
                        <path d="M23.75,16.625 C23.75,17.0625779 24.1040887,17.4166667 24.5416667,17.4166667 L28.5315004,17.4166667 L28.0790867,15.8333333 L24.5416667,15.8333333 C24.1040887,15.8333333 23.75,16.1874221 23.75,16.625 Z" id="Shape" fill="#E6E6E6"></path>
                        <path d="M26.125,19.7916667 C26.125,20.2292446 26.4790888,20.5833333 26.9166667,20.5833333 L29.4362408,20.5833333 L28.9838746,19 L26.9166667,19 C26.4790888,19 26.125,19.3540887 26.125,19.7916667 Z" id="Shape" fill="#E6E6E6"></path>
                        <path d="M21.375,13.4583333 C21.375,13.8955313 21.7290887,14.25 22.1666667,14.25 L27.6267204,14.25 L27.3781687,13.3800533 C27.3050583,13.1241075 27.1931088,12.88922 27.0639958,12.6666667 L22.1666667,12.6666667 C21.7290887,12.6666667 21.375,13.0211354 21.375,13.4583333 Z" id="Shape" fill="#E6E6E6"></path>
                        <path d="M33.25,34.0416667 L23.6705483,34.0416667 C21.9908454,34.0416667 20.3799383,33.3744104 19.1922088,32.1866808 L1.4144075,14.4089271 C1.05822083,14.0527404 0.7856025,13.6071667 0.695882917,13.1114962 C0.551918333,12.3161087 0.799290417,11.5396658 1.35139875,10.9870825 L3.5625,8.77636917 L23.1503046,28.3641737 C23.7441733,28.9580346 24.5496229,29.2916667 25.3894783,29.2916667 L37.2083333,29.2916667 L37.2083333,30.0833333 C37.2083333,32.2694654 35.4361321,34.0416667 33.25,34.0416667 Z" id="Shape" fill="#E0E0E0"></path>
                    </g>
                </g>
            </g>
        </g>
    </g>
</svg>