<!-- Generated by IcoMoon.io -->
<svg version="1.1" xmlns="http://www.w3.org/2000/svg" width="64" height="64" viewBox="0 0 64 64">
<title>Check</title>
<path fill="#bfdee0" d="M62.609 64h-61.217c-0.768 0-1.391-0.622-1.391-1.391v-26.435c0-0.769 0.623-1.391 1.391-1.391h61.217c0.768 0 1.391 0.622 1.391 1.391v26.435c0 0.769-0.623 1.391-1.391 1.391z"></path>
<path fill="#444" d="M52.87 45.913h-22.261c-0.768 0-1.391-0.622-1.391-1.391s0.623-1.391 1.391-1.391h22.261c0.768 0 1.391 0.622 1.391 1.391s-0.623 1.391-1.391 1.391z"></path>
<path fill="#444" d="M52.87 55.652h-41.739c-0.768 0-1.391-0.622-1.391-1.391s0.623-1.391 1.391-1.391h41.739c0.768 0 1.391 0.622 1.391 1.391s-0.623 1.391-1.391 1.391z"></path>
<path fill="#444" d="M37.158 27.752l-5.565-5.565c-0.544-0.544-1.424-0.544-1.967 0l-16.696 16.696c-1.734 1.734-1.999 4.368-0.837 6.402l-1.946 1.946c-0.543 0.544-0.543 1.424 0 1.967 0.272 0.272 0.628 0.408 0.984 0.408s0.712-0.136 0.984-0.408l1.946-1.946c0.816 0.466 1.722 0.721 2.636 0.721 1.364 0 2.728-0.519 3.766-1.558l16.696-16.696c0.544-0.544 0.544-1.424 0-1.967z"></path>
<path fill="#efd358" d="M48.696 31.518c-0.356 0-0.712-0.136-0.984-0.408-0.544-0.544-0.544-1.424 0-1.967l10.147-10.147-3.19-3.19c-0.544-0.543-0.544-1.424 0-1.967s1.424-0.543 1.967 0l4.174 4.174c0.544 0.544 0.544 1.424 0 1.967l-11.13 11.13c-0.272 0.272-0.628 0.408-0.984 0.408z"></path>
<path fill="#636363" d="M56.636 2.709c-3.611-3.611-9.486-3.611-13.098 0l-16.696 16.696c-0.544 0.544-0.544 1.424 0 1.967l11.13 11.13c0.272 0.272 0.628 0.408 0.984 0.408s0.712-0.136 0.984-0.408l16.696-16.696c3.611-3.611 3.611-9.487 0-13.098z"></path>
</svg>
