<!-- Generated by IcoMoon.io -->
<svg version="1.1" xmlns="http://www.w3.org/2000/svg" width="79" height="64" viewBox="0 0 79 64">
<title>deductions</title>
<path fill="#307730" d="M58.435 25.472h-47.947c-0.828 0-1.498-0.671-1.498-1.498v-22.475c0-0.828 0.671-1.498 1.498-1.498h47.947c0.828 0 1.498 0.671 1.498 1.498v22.475c0 0.828-0.671 1.498-1.498 1.498z"></path>
<path fill="#3f8e3f" d="M62.93 25.472h-56.936c-0.827 0-1.498-0.671-1.498-1.498v-16.482c0-0.827 0.671-1.498 1.498-1.498h56.936c0.828 0 1.498 0.671 1.498 1.498v16.482c0 0.828-0.671 1.498-1.498 1.498z"></path>
<path fill="#4da34d" d="M67.425 56.936h-65.926c-0.827 0-1.498-0.671-1.498-1.498v-41.953c0-0.827 0.671-1.498 1.498-1.498h65.926c0.827 0 1.498 0.671 1.498 1.498v41.953c0 0.827-0.671 1.498-1.498 1.498z"></path>
<path fill="#9edb9e" d="M55.438 16.482h-41.953c0 4.965-4.025 8.99-8.99 8.99v17.98c4.965 0 8.99 4.025 8.99 8.99h41.953c0-4.965 4.025-8.99 8.99-8.99v-17.98c-4.965 0-8.99-4.025-8.99-8.99z"></path>
<path fill="#4da34d" d="M44.95 34.462c0 5.793-4.696 10.488-10.488 10.488s-10.488-4.696-10.488-10.488c0-5.793 4.696-10.488 10.488-10.488s10.488 4.696 10.488 10.488z"></path>
<path fill="#e86c60" d="M66.462 64c-6.786 0-12.308-5.521-12.308-12.308s5.521-12.308 12.308-12.308c6.786 0 12.308 5.521 12.308 12.308s-5.521 12.308-12.308 12.308z"></path>
<path fill="#fff" d="M72.348 50.087h-11.773c-0.296 0-0.535 0.24-0.535 0.535v2.14c0 0.296 0.24 0.535 0.535 0.535h11.773c0.296 0 0.535-0.24 0.535-0.535v-2.14c0-0.296-0.24-0.535-0.535-0.535z"></path>
</svg>
