<!-- Generated by IcoMoon.io -->
<svg version="1.1" xmlns="http://www.w3.org/2000/svg" width="64" height="64" viewBox="0 0 64 64">
<title>handout</title>
<path fill="#efd358" d="M52.87 22.261c0 4.61-3.737 8.348-8.348 8.348s-8.348-3.737-8.348-8.348c0-4.61 3.737-8.348 8.348-8.348s8.348 3.737 8.348 8.348z"></path>
<path fill="#efd358" d="M33.391 8.348c0 4.61-3.737 8.348-8.348 8.348s-8.348-3.737-8.348-8.348c0-4.61 3.737-8.348 8.348-8.348s8.348 3.737 8.348 8.348z"></path>
<path fill="#b29930" d="M27.826 9.739h-5.565c-0.769 0-1.391-0.622-1.391-1.391s0.622-1.391 1.391-1.391h5.565c0.769 0 1.391 0.622 1.391 1.391s-0.622 1.391-1.391 1.391z"></path>
<path fill="#b29930" d="M47.304 23.652h-5.565c-0.769 0-1.391-0.622-1.391-1.391s0.622-1.391 1.391-1.391h5.565c0.769 0 1.391 0.622 1.391 1.391s-0.622 1.391-1.391 1.391z"></path>
<path fill="#ead8c5" d="M59.842 47.666l-24.377 2.12c-2.257 0.196-4.52-0.301-6.486-1.425l-6.719-3.839h15.677c2.1 0 3.801-1.702 3.801-3.801v0c0-1.829-1.303-3.399-3.101-3.736l-14.076-2.639c-3.382-0.634-6.815-0.953-10.256-0.953h-11.523v20.145l22.886 9.541c2.533 0.95 5.336 0.936 7.914 0.285l30.417-11.885c0-2.244-1.922-4.006-4.158-3.812z"></path>
<path fill="#5a7a84" d="M8.348 59.826h-6.957c-0.768 0-1.391-0.623-1.391-1.391v-26.435c0-0.768 0.623-1.391 1.391-1.391h6.957c0.768 0 1.391 0.623 1.391 1.391v26.435c0 0.768-0.623 1.391-1.391 1.391z"></path>
</svg>
