<!-- Generated by IcoMoon.io -->
<svg version="1.1" xmlns="http://www.w3.org/2000/svg" width="61" height="64" viewBox="0 0 61 64">
<title>employees</title>
<path fill="#eac3a2" d="M31.861 23.55h13.853v16.623h-13.853v-16.623z"></path>
<path fill="#42a6dd" d="M17.999 63.723c-0.76 0-1.375-0.611-1.375-1.395v-17.296c0-2.301 1.66-4.996 3.728-6.030l11.51-5.755c0 0 2.771 2.771 6.926 2.771s6.926-2.771 6.926-2.771l11.51 5.755c2.059 1.029 3.728 3.734 3.728 6.030v17.296c0 0.771-0.627 1.395-1.375 1.395h-41.578z"></path>
<path fill="#ead8c5" d="M49.87 19.394c0 6.121-4.962 11.082-11.082 11.082s-11.082-4.962-11.082-11.082v-4.156c0-6.121 4.962-11.082 11.082-11.082s11.082 4.962 11.082 11.082v4.156z"></path>
<path fill="#444" d="M49.87 16.623v-6.927c0-3.048-2.482-5.541-5.543-5.541h-0.691l-1.455-2.909c-0.352-0.704-1.196-1.018-1.902-0.736l-8.716 3.486c-2.132 0.853-3.859 3.405-3.859 5.702v6.924c0-3.060 2.481-5.541 5.541-5.541h11.082c3.060 0 5.541 2.481 5.541 5.541z"></path>
<path fill="#87613e" d="M8.312 29.091c0-7.651 6.202-13.853 13.853-13.853s13.853 6.202 13.853 13.853v11.073c0 3.065-2.483 5.55-5.54 5.55h-16.625c-3.060 0-5.54-2.485-5.54-5.55v-11.073z"></path>
<path fill="#eac3a2" d="M15.238 37.403h13.853v15.81h-13.853v-15.81z"></path>
<path fill="#ed69ab" d="M1.375 63.723c-0.76 0-1.375-0.619-1.375-1.387v-3.458c0-2.297 1.66-4.989 3.728-6.023l11.51-5.755c0 0 2.771 2.771 6.926 2.771s6.926-2.771 6.926-2.771l11.51 5.755c2.059 1.029 3.728 3.73 3.728 6.023v3.458c0 0.766-0.627 1.387-1.375 1.387h-41.578z"></path>
<path fill="#ead8c5" d="M11.082 31.357v2.015c0 6.11 4.972 11.082 11.082 11.082s11.082-4.972 11.082-11.082v-2.015c0-1.669-1.353-3.022-3.022-3.022-3.509 0-6.552-1.993-8.060-4.909-1.507 2.916-4.551 4.909-8.060 4.909-1.669 0-3.022 1.353-3.022 3.022z"></path>
</svg>
