<!-- Generated by IcoMoon.io -->
<svg version="1.1" xmlns="http://www.w3.org/2000/svg" width="64" height="64" viewBox="0 0 64 64">
<title>change</title>
<path fill="#fff" d="M52.87 27.826c0 13.831-11.212 25.044-25.044 25.044s-25.044-11.212-25.044-25.044c0-13.831 11.212-25.044 25.044-25.044s25.044 11.212 25.044 25.044z"></path>
<path fill="#43a6dd" d="M27.826 55.652c-15.343 0-27.826-12.483-27.826-27.826s12.483-27.826 27.826-27.826c15.343 0 27.826 12.483 27.826 27.826s-12.483 27.826-27.826 27.826zM27.826 5.565c-12.274 0-22.261 9.986-22.261 22.261s9.986 22.261 22.261 22.261c12.274 0 22.261-9.986 22.261-22.261s-9.986-22.261-22.261-22.261z"></path>
<path fill="#e86c60" d="M18.087 38.956c-0.356 0-0.712-0.136-0.984-0.408-0.544-0.544-0.544-1.424 0-1.967l9.739-9.739c0.544-0.544 1.424-0.544 1.967 0s0.544 1.424 0 1.967l-9.739 9.739c-0.272 0.272-0.628 0.408-0.984 0.408z"></path>
<path fill="#223e49" d="M27.826 29.217c-0.769 0-1.391-0.623-1.391-1.391v-13.913c0-0.768 0.622-1.391 1.391-1.391s1.391 0.623 1.391 1.391v13.913c0 0.768-0.622 1.391-1.391 1.391z"></path>
<path fill="#223e49" d="M41.739 29.217h-13.913c-0.769 0-1.391-0.623-1.391-1.391s0.622-1.391 1.391-1.391h13.913c0.769 0 1.391 0.623 1.391 1.391s-0.622 1.391-1.391 1.391z"></path>
<path fill="#223e49" d="M32 27.826c0 2.305-1.869 4.174-4.174 4.174s-4.174-1.869-4.174-4.174c0-2.305 1.869-4.174 4.174-4.174s4.174 1.869 4.174 4.174z"></path>
<path fill="#000" opacity="0.1" d="M55.652 27.826c0-3.244-0.587-6.346-1.611-9.243-1.681-0.326-3.514-0.497-5.345-0.497-6.223 0-12.522 1.912-12.522 5.565v4.174c0 0.497 0.126 0.959 0.343 1.391-0.217 0.432-0.343 0.894-0.343 1.391v4.174c0 0.497 0.126 0.959 0.343 1.391-0.217 0.432-0.343 0.894-0.343 1.391v4.174c0 0.497 0.126 0.959 0.343 1.391-0.217 0.432-0.343 0.894-0.343 1.391v4.174c0 0.497 0.126 0.959 0.343 1.391-0.217 0.432-0.343 0.894-0.343 1.391v2.783h0.294c11.122-3.646 19.184-14.11 19.184-26.435z"></path>
<path fill="#d8bc48" d="M62.609 52.87h-22.261c-0.768 0-1.391 0.623-1.391 1.391v4.174c0 3.654 6.299 5.565 12.522 5.565s12.522-1.912 12.522-5.565v-4.174c0-0.768-0.623-1.391-1.391-1.391z"></path>
<path fill="#efd358" d="M51.478 48.696c-6.223 0-12.522 1.912-12.522 5.565s6.299 5.565 12.522 5.565c6.223 0 12.522-1.912 12.522-5.565s-6.299-5.565-12.522-5.565z"></path>
<path fill="#d8bc48" d="M62.609 45.913h-22.261c-0.768 0-1.391 0.623-1.391 1.391v4.174c0 3.654 6.299 5.565 12.522 5.565s12.522-1.912 12.522-5.565v-4.174c0-0.768-0.623-1.391-1.391-1.391z"></path>
<path fill="#efd358" d="M51.478 41.739c-6.223 0-12.522 1.912-12.522 5.565s6.299 5.565 12.522 5.565c6.223 0 12.522-1.912 12.522-5.565s-6.299-5.565-12.522-5.565z"></path>
<path fill="#d8bc48" d="M62.609 38.956h-22.261c-0.768 0-1.391 0.623-1.391 1.391v4.174c0 3.654 6.299 5.565 12.522 5.565s12.522-1.912 12.522-5.565v-4.174c0-0.768-0.623-1.391-1.391-1.391z"></path>
<path fill="#efd358" d="M51.478 34.783c-6.223 0-12.522 1.912-12.522 5.565s6.299 5.565 12.522 5.565c6.223 0 12.522-1.912 12.522-5.565s-6.299-5.565-12.522-5.565z"></path>
<path fill="#d8bc48" d="M62.609 32h-22.261c-0.768 0-1.391 0.623-1.391 1.391v4.174c0 3.654 6.299 5.565 12.522 5.565s12.522-1.912 12.522-5.565v-4.174c0-0.768-0.623-1.391-1.391-1.391z"></path>
<path fill="#efd358" d="M51.478 27.826c-6.223 0-12.522 1.912-12.522 5.565s6.299 5.565 12.522 5.565c6.223 0 12.522-1.912 12.522-5.565s-6.299-5.565-12.522-5.565z"></path>
<path fill="#d8bc48" d="M62.609 25.044h-22.261c-0.768 0-1.391 0.623-1.391 1.391v4.174c0 3.654 6.299 5.565 12.522 5.565s12.522-1.912 12.522-5.565v-4.174c0-0.768-0.623-1.391-1.391-1.391z"></path>
<path fill="#efd358" d="M51.478 20.87c-6.223 0-12.522 1.912-12.522 5.565s6.299 5.565 12.522 5.565c6.223 0 12.522-1.912 12.522-5.565s-6.299-5.565-12.522-5.565z"></path>
</svg>
